<svg width="216" height="142" viewBox="0 0 216 142" fill="none" xmlns="http://www.w3.org/2000/svg">
<path d="M56.944 14.8V26H54.352V16.88H52.112V14.8H56.944ZM63.6289 20.496H68.1569V22.496H63.6289V20.496ZM80.188 26.192C79.0467 26.192 78.012 25.9467 77.084 25.456C76.1667 24.9547 75.4413 24.2667 74.908 23.392C74.3853 22.5067 74.124 21.5093 74.124 20.4C74.124 19.2907 74.3853 18.2987 74.908 17.424C75.4413 16.5387 76.1667 15.8507 77.084 15.36C78.012 14.8587 79.052 14.608 80.204 14.608C81.1747 14.608 82.0493 14.7787 82.828 15.12C83.6173 15.4613 84.2787 15.952 84.812 16.592L83.148 18.128C82.3907 17.2533 81.452 16.816 80.332 16.816C79.6387 16.816 79.02 16.9707 78.476 17.28C77.932 17.5787 77.5053 18 77.196 18.544C76.8973 19.088 76.748 19.7067 76.748 20.4C76.748 21.0933 76.8973 21.712 77.196 22.256C77.5053 22.8 77.932 23.2267 78.476 23.536C79.02 23.8347 79.6387 23.984 80.332 23.984C81.452 23.984 82.3907 23.5413 83.148 22.656L84.812 24.192C84.2787 24.8427 83.6173 25.3387 82.828 25.68C82.0387 26.0213 81.1587 26.192 80.188 26.192ZM91.752 26.192C90.5893 26.192 89.5387 25.9413 88.6 25.44C87.672 24.9387 86.9413 24.2507 86.408 23.376C85.8853 22.4907 85.624 21.4987 85.624 20.4C85.624 19.3013 85.8853 18.3147 86.408 17.44C86.9413 16.5547 87.672 15.8613 88.6 15.36C89.5387 14.8587 90.5893 14.608 91.752 14.608C92.9147 14.608 93.96 14.8587 94.888 15.36C95.816 15.8613 96.5467 16.5547 97.08 17.44C97.6133 18.3147 97.88 19.3013 97.88 20.4C97.88 21.4987 97.6133 22.4907 97.08 23.376C96.5467 24.2507 95.816 24.9387 94.888 25.44C93.96 25.9413 92.9147 26.192 91.752 26.192ZM91.752 23.984C92.4133 23.984 93.0107 23.8347 93.544 23.536C94.0773 23.2267 94.4933 22.8 94.792 22.256C95.1013 21.712 95.256 21.0933 95.256 20.4C95.256 19.7067 95.1013 19.088 94.792 18.544C94.4933 18 94.0773 17.5787 93.544 17.28C93.0107 16.9707 92.4133 16.816 91.752 16.816C91.0907 16.816 90.4933 16.9707 89.96 17.28C89.4267 17.5787 89.0053 18 88.696 18.544C88.3973 19.088 88.248 19.7067 88.248 20.4C88.248 21.0933 88.3973 21.712 88.696 22.256C89.0053 22.8 89.4267 23.2267 89.96 23.536C90.4933 23.8347 91.0907 23.984 91.752 23.984ZM110.1 14.8V26H107.972L102.388 19.2V26H99.828V14.8H101.972L107.54 21.6V14.8H110.1ZM115.07 16.912H111.486V14.8H121.246V16.912H117.662V26H115.07V16.912ZM129.454 23.6H124.254L123.262 26H120.606L125.598 14.8H128.158L133.166 26H130.446L129.454 23.6ZM128.638 21.632L126.862 17.344L125.086 21.632H128.638ZM139.532 26.192C138.39 26.192 137.356 25.9467 136.428 25.456C135.51 24.9547 134.785 24.2667 134.252 23.392C133.729 22.5067 133.468 21.5093 133.468 20.4C133.468 19.2907 133.729 18.2987 134.252 17.424C134.785 16.5387 135.51 15.8507 136.428 15.36C137.356 14.8587 138.396 14.608 139.548 14.608C140.518 14.608 141.393 14.7787 142.172 15.12C142.961 15.4613 143.622 15.952 144.156 16.592L142.492 18.128C141.734 17.2533 140.796 16.816 139.676 16.816C138.982 16.816 138.364 16.9707 137.82 17.28C137.276 17.5787 136.849 18 136.54 18.544C136.241 19.088 136.092 19.7067 136.092 20.4C136.092 21.0933 136.241 21.712 136.54 22.256C136.849 22.8 137.276 23.2267 137.82 23.536C138.364 23.8347 138.982 23.984 139.676 23.984C140.796 23.984 141.734 23.5413 142.492 22.656L144.156 24.192C143.622 24.8427 142.961 25.3387 142.172 25.68C141.382 26.0213 140.502 26.192 139.532 26.192ZM148.117 16.912H144.533V14.8H154.293V16.912H150.709V26H148.117V16.912ZM165.195 26.192C163.595 26.192 162.347 25.7493 161.451 24.864C160.565 23.9787 160.123 22.7147 160.123 21.072V14.8H162.715V20.976C162.715 22.9813 163.547 23.984 165.211 23.984C166.021 23.984 166.64 23.744 167.067 23.264C167.493 22.7733 167.707 22.0107 167.707 20.976V14.8H170.267V21.072C170.267 22.7147 169.819 23.9787 168.923 24.864C168.037 25.7493 166.795 26.192 165.195 26.192ZM176.508 26.192C175.623 26.192 174.764 26.0747 173.932 25.84C173.111 25.5947 172.449 25.28 171.948 24.896L172.828 22.944C173.308 23.296 173.879 23.5787 174.54 23.792C175.201 24.0053 175.863 24.112 176.524 24.112C177.26 24.112 177.804 24.0053 178.156 23.792C178.508 23.568 178.684 23.2747 178.684 22.912C178.684 22.6453 178.577 22.4267 178.364 22.256C178.161 22.0747 177.895 21.9307 177.564 21.824C177.244 21.7173 176.807 21.6 176.252 21.472C175.399 21.2693 174.7 21.0667 174.156 20.864C173.612 20.6613 173.143 20.336 172.748 19.888C172.364 19.44 172.172 18.8427 172.172 18.096C172.172 17.4453 172.348 16.8587 172.7 16.336C173.052 15.8027 173.58 15.3813 174.284 15.072C174.999 14.7627 175.868 14.608 176.892 14.608C177.607 14.608 178.305 14.6933 178.988 14.864C179.671 15.0347 180.268 15.28 180.78 15.6L179.98 17.568C178.945 16.9813 177.911 16.688 176.876 16.688C176.151 16.688 175.612 16.8053 175.26 17.04C174.919 17.2747 174.748 17.584 174.748 17.968C174.748 18.352 174.945 18.64 175.34 18.832C175.745 19.0133 176.359 19.1947 177.18 19.376C178.033 19.5787 178.732 19.7813 179.276 19.984C179.82 20.1867 180.284 20.5067 180.668 20.944C181.063 21.3813 181.26 21.9733 181.26 22.72C181.26 23.36 181.079 23.9467 180.716 24.48C180.364 25.0027 179.831 25.4187 179.116 25.728C178.401 26.0373 177.532 26.192 176.508 26.192Z" fill="black"/>
<path d="M60.992 74.888V77H52.528V75.32L56.848 71.24C57.3067 70.8027 57.616 70.4293 57.776 70.12C57.936 69.8 58.016 69.4853 58.016 69.176C58.016 68.728 57.8613 68.3867 57.552 68.152C57.2533 67.9067 56.8107 67.784 56.224 67.784C55.7333 67.784 55.2907 67.88 54.896 68.072C54.5013 68.2533 54.1707 68.5307 53.904 68.904L52.016 67.688C52.4533 67.0373 53.056 66.5307 53.824 66.168C54.592 65.7947 55.472 65.608 56.464 65.608C57.296 65.608 58.0213 65.7467 58.64 66.024C59.2693 66.2907 59.7547 66.6747 60.096 67.176C60.448 67.6667 60.624 68.248 60.624 68.92C60.624 69.528 60.496 70.0987 60.24 70.632C59.984 71.1653 59.488 71.7733 58.752 72.456L56.176 74.888H60.992ZM66.8008 71.496H71.3288V73.496H66.8008V71.496ZM83.3599 77.192C82.2185 77.192 81.1839 76.9467 80.2559 76.456C79.3385 75.9547 78.6132 75.2667 78.0799 74.392C77.5572 73.5067 77.2959 72.5093 77.2959 71.4C77.2959 70.2907 77.5572 69.2987 78.0799 68.424C78.6132 67.5387 79.3385 66.8507 80.2559 66.36C81.1839 65.8587 82.2239 65.608 83.3759 65.608C84.3465 65.608 85.2212 65.7787 85.9999 66.12C86.7892 66.4613 87.4505 66.952 87.9839 67.592L86.3199 69.128C85.5625 68.2533 84.6239 67.816 83.5039 67.816C82.8105 67.816 82.1919 67.9707 81.6479 68.28C81.1039 68.5787 80.6772 69 80.3679 69.544C80.0692 70.088 79.9199 70.7067 79.9199 71.4C79.9199 72.0933 80.0692 72.712 80.3679 73.256C80.6772 73.8 81.1039 74.2267 81.6479 74.536C82.1919 74.8347 82.8105 74.984 83.5039 74.984C84.6239 74.984 85.5625 74.5413 86.3199 73.656L87.9839 75.192C87.4505 75.8427 86.7892 76.3387 85.9999 76.68C85.2105 77.0213 84.3305 77.192 83.3599 77.192ZM94.9239 77.192C93.7612 77.192 92.7105 76.9413 91.7719 76.44C90.8439 75.9387 90.1132 75.2507 89.5799 74.376C89.0572 73.4907 88.7959 72.4987 88.7959 71.4C88.7959 70.3013 89.0572 69.3147 89.5799 68.44C90.1132 67.5547 90.8439 66.8613 91.7719 66.36C92.7105 65.8587 93.7612 65.608 94.9239 65.608C96.0865 65.608 97.1319 65.8587 98.0599 66.36C98.9879 66.8613 99.7185 67.5547 100.252 68.44C100.785 69.3147 101.052 70.3013 101.052 71.4C101.052 72.4987 100.785 73.4907 100.252 74.376C99.7185 75.2507 98.9879 75.9387 98.0599 76.44C97.1319 76.9413 96.0865 77.192 94.9239 77.192ZM94.9239 74.984C95.5852 74.984 96.1825 74.8347 96.7159 74.536C97.2492 74.2267 97.6652 73.8 97.9639 73.256C98.2732 72.712 98.4279 72.0933 98.4279 71.4C98.4279 70.7067 98.2732 70.088 97.9639 69.544C97.6652 69 97.2492 68.5787 96.7159 68.28C96.1825 67.9707 95.5852 67.816 94.9239 67.816C94.2625 67.816 93.6652 67.9707 93.1319 68.28C92.5985 68.5787 92.1772 69 91.8679 69.544C91.5692 70.088 91.4199 70.7067 91.4199 71.4C91.4199 72.0933 91.5692 72.712 91.8679 73.256C92.1772 73.8 92.5985 74.2267 93.1319 74.536C93.6652 74.8347 94.2625 74.984 94.9239 74.984ZM113.272 65.8V77H111.144L105.56 70.2V77H103V65.8H105.144L110.712 72.6V65.8H113.272ZM118.514 67.88V70.84H123.698V72.92H118.514V77H115.922V65.8H124.386V67.88H118.514ZM126.141 65.8H128.733V77H126.141V65.8ZM138.527 77L136.367 73.88H136.239H133.983V77H131.391V65.8H136.239C137.231 65.8 138.089 65.9653 138.815 66.296C139.551 66.6267 140.116 67.096 140.511 67.704C140.905 68.312 141.103 69.032 141.103 69.864C141.103 70.696 140.9 71.416 140.495 72.024C140.1 72.6213 139.535 73.08 138.799 73.4L141.311 77H138.527ZM138.479 69.864C138.479 69.2347 138.276 68.7547 137.871 68.424C137.465 68.0827 136.873 67.912 136.095 67.912H133.983V71.816H136.095C136.873 71.816 137.465 71.6453 137.871 71.304C138.276 70.9627 138.479 70.4827 138.479 69.864ZM153.348 77L153.332 70.28L150.036 75.816H148.868L145.588 70.424V77H143.156V65.8H145.3L149.492 72.76L153.62 65.8H155.748L155.78 77H153.348ZM166.649 77.192C165.763 77.192 164.905 77.0747 164.073 76.84C163.251 76.5947 162.59 76.28 162.089 75.896L162.969 73.944C163.449 74.296 164.019 74.5787 164.681 74.792C165.342 75.0053 166.003 75.112 166.665 75.112C167.401 75.112 167.945 75.0053 168.297 74.792C168.649 74.568 168.825 74.2747 168.825 73.912C168.825 73.6453 168.718 73.4267 168.505 73.256C168.302 73.0747 168.035 72.9307 167.705 72.824C167.385 72.7173 166.947 72.6 166.393 72.472C165.539 72.2693 164.841 72.0667 164.297 71.864C163.753 71.6613 163.283 71.336 162.889 70.888C162.505 70.44 162.313 69.8427 162.313 69.096C162.313 68.4453 162.489 67.8587 162.841 67.336C163.193 66.8027 163.721 66.3813 164.425 66.072C165.139 65.7627 166.009 65.608 167.033 65.608C167.747 65.608 168.446 65.6933 169.129 65.864C169.811 66.0347 170.409 66.28 170.921 66.6L170.121 68.568C169.086 67.9813 168.051 67.688 167.017 67.688C166.291 67.688 165.753 67.8053 165.401 68.04C165.059 68.2747 164.889 68.584 164.889 68.968C164.889 69.352 165.086 69.64 165.481 69.832C165.886 70.0133 166.499 70.1947 167.321 70.376C168.174 70.5787 168.873 70.7813 169.417 70.984C169.961 71.1867 170.425 71.5067 170.809 71.944C171.203 72.3813 171.401 72.9733 171.401 73.72C171.401 74.36 171.219 74.9467 170.857 75.48C170.505 76.0027 169.971 76.4187 169.257 76.728C168.542 77.0373 167.673 77.192 166.649 77.192ZM178.02 65.8C179.012 65.8 179.87 65.9653 180.596 66.296C181.332 66.6267 181.897 67.096 182.292 67.704C182.686 68.312 182.884 69.032 182.884 69.864C182.884 70.6853 182.686 71.4053 182.292 72.024C181.897 72.632 181.332 73.1013 180.596 73.432C179.87 73.752 179.012 73.912 178.02 73.912H175.764V77H173.172V65.8H178.02ZM177.876 71.8C178.654 71.8 179.246 71.6347 179.652 71.304C180.057 70.9627 180.26 70.4827 180.26 69.864C180.26 69.2347 180.057 68.7547 179.652 68.424C179.246 68.0827 178.654 67.912 177.876 67.912H175.764V71.8H177.876ZM193.406 74.92V77H184.734V65.8H193.198V67.88H187.31V70.312H192.51V72.328H187.31V74.92H193.406ZM200.797 77.192C199.656 77.192 198.621 76.9467 197.693 76.456C196.776 75.9547 196.051 75.2667 195.517 74.392C194.995 73.5067 194.733 72.5093 194.733 71.4C194.733 70.2907 194.995 69.2987 195.517 68.424C196.051 67.5387 196.776 66.8507 197.693 66.36C198.621 65.8587 199.661 65.608 200.813 65.608C201.784 65.608 202.659 65.7787 203.437 66.12C204.227 66.4613 204.888 66.952 205.421 67.592L203.757 69.128C203 68.2533 202.061 67.816 200.941 67.816C200.248 67.816 199.629 67.9707 199.085 68.28C198.541 68.5787 198.115 69 197.805 69.544C197.507 70.088 197.357 70.7067 197.357 71.4C197.357 72.0933 197.507 72.712 197.805 73.256C198.115 73.8 198.541 74.2267 199.085 74.536C199.629 74.8347 200.248 74.984 200.941 74.984C202.061 74.984 203 74.5413 203.757 73.656L205.421 75.192C204.888 75.8427 204.227 76.3387 203.437 76.68C202.648 77.0213 201.768 77.192 200.797 77.192ZM210.758 77.192C209.873 77.192 209.014 77.0747 208.182 76.84C207.361 76.5947 206.699 76.28 206.198 75.896L207.078 73.944C207.558 74.296 208.129 74.5787 208.79 74.792C209.451 75.0053 210.113 75.112 210.774 75.112C211.51 75.112 212.054 75.0053 212.406 74.792C212.758 74.568 212.934 74.2747 212.934 73.912C212.934 73.6453 212.827 73.4267 212.614 73.256C212.411 73.0747 212.145 72.9307 211.814 72.824C211.494 72.7173 211.057 72.6 210.502 72.472C209.649 72.2693 208.95 72.0667 208.406 71.864C207.862 71.6613 207.393 71.336 206.998 70.888C206.614 70.44 206.422 69.8427 206.422 69.096C206.422 68.4453 206.598 67.8587 206.95 67.336C207.302 66.8027 207.83 66.3813 208.534 66.072C209.249 65.7627 210.118 65.608 211.142 65.608C211.857 65.608 212.555 65.6933 213.238 65.864C213.921 66.0347 214.518 66.28 215.03 66.6L214.23 68.568C213.195 67.9813 212.161 67.688 211.126 67.688C210.401 67.688 209.862 67.8053 209.51 68.04C209.169 68.2747 208.998 68.584 208.998 68.968C208.998 69.352 209.195 69.64 209.59 69.832C209.995 70.0133 210.609 70.1947 211.43 70.376C212.283 70.5787 212.982 70.7813 213.526 70.984C214.07 71.1867 214.534 71.5067 214.918 71.944C215.313 72.3813 215.51 72.9733 215.51 73.72C215.51 74.36 215.329 74.9467 214.966 75.48C214.614 76.0027 214.081 76.4187 213.366 76.728C212.651 77.0373 211.782 77.192 210.758 77.192Z" fill="black"/>
<path d="M57.856 122.36C58.8373 122.52 59.5893 122.888 60.112 123.464C60.6347 124.029 60.896 124.733 60.896 125.576C60.896 126.227 60.7253 126.829 60.384 127.384C60.0427 127.928 59.52 128.365 58.816 128.696C58.1227 129.027 57.2693 129.192 56.256 129.192C55.4667 129.192 54.688 129.091 53.92 128.888C53.1627 128.675 52.5173 128.376 51.984 127.992L52.992 126.008C53.4187 126.328 53.9093 126.579 54.464 126.76C55.0293 126.931 55.6053 127.016 56.192 127.016C56.8427 127.016 57.3547 126.893 57.728 126.648C58.1013 126.392 58.288 126.035 58.288 125.576C58.288 124.659 57.5893 124.2 56.192 124.2H55.008V122.488L57.312 119.88H52.544V117.8H60.384V119.48L57.856 122.36ZM66.832 123.496H71.36V125.496H66.832V123.496ZM85.1671 129L83.0071 125.88H82.8791H80.6231V129H78.0311V117.8H82.8791C83.8711 117.8 84.7298 117.965 85.4551 118.296C86.1911 118.627 86.7565 119.096 87.1511 119.704C87.5458 120.312 87.7431 121.032 87.7431 121.864C87.7431 122.696 87.5405 123.416 87.1351 124.024C86.7405 124.621 86.1751 125.08 85.4391 125.4L87.9511 129H85.1671ZM85.1191 121.864C85.1191 121.235 84.9165 120.755 84.5111 120.424C84.1058 120.083 83.5138 119.912 82.7351 119.912H80.6231V123.816H82.7351C83.5138 123.816 84.1058 123.645 84.5111 123.304C84.9165 122.963 85.1191 122.483 85.1191 121.864ZM98.4688 126.92V129H89.7968V117.8H98.2608V119.88H92.3728V122.312H97.5728V124.328H92.3728V126.92H98.4688ZM105.86 129.192C104.719 129.192 103.684 128.947 102.756 128.456C101.839 127.955 101.113 127.267 100.58 126.392C100.057 125.507 99.7959 124.509 99.7959 123.4C99.7959 122.291 100.057 121.299 100.58 120.424C101.113 119.539 101.839 118.851 102.756 118.36C103.684 117.859 104.724 117.608 105.876 117.608C106.847 117.608 107.721 117.779 108.5 118.12C109.289 118.461 109.951 118.952 110.484 119.592L108.82 121.128C108.063 120.253 107.124 119.816 106.004 119.816C105.311 119.816 104.692 119.971 104.148 120.28C103.604 120.579 103.177 121 102.868 121.544C102.569 122.088 102.42 122.707 102.42 123.4C102.42 124.093 102.569 124.712 102.868 125.256C103.177 125.8 103.604 126.227 104.148 126.536C104.692 126.835 105.311 126.984 106.004 126.984C107.124 126.984 108.063 126.541 108.82 125.656L110.484 127.192C109.951 127.843 109.289 128.339 108.5 128.68C107.711 129.021 106.831 129.192 105.86 129.192ZM120.906 126.92V129H112.234V117.8H120.698V119.88H114.81V122.312H120.01V124.328H114.81V126.92H120.906ZM122.969 117.8H125.561V129H122.969V117.8ZM138.924 117.8L134.076 129H131.516L126.684 117.8H129.484L132.892 125.8L136.348 117.8H138.924ZM148.531 126.92V129H139.859V117.8H148.323V119.88H142.435V122.312H147.635V124.328H142.435V126.92H148.531ZM160.549 129.192C159.386 129.192 158.336 128.941 157.397 128.44C156.469 127.939 155.738 127.251 155.205 126.376C154.682 125.491 154.421 124.499 154.421 123.4C154.421 122.301 154.682 121.315 155.205 120.44C155.738 119.555 156.469 118.861 157.397 118.36C158.336 117.859 159.386 117.608 160.549 117.608C161.712 117.608 162.757 117.859 163.685 118.36C164.613 118.861 165.344 119.555 165.877 120.44C166.41 121.315 166.677 122.301 166.677 123.4C166.677 124.499 166.41 125.491 165.877 126.376C165.344 127.251 164.613 127.939 163.685 128.44C162.757 128.941 161.712 129.192 160.549 129.192ZM160.549 126.984C161.21 126.984 161.808 126.835 162.341 126.536C162.874 126.227 163.29 125.8 163.589 125.256C163.898 124.712 164.053 124.093 164.053 123.4C164.053 122.707 163.898 122.088 163.589 121.544C163.29 121 162.874 120.579 162.341 120.28C161.808 119.971 161.21 119.816 160.549 119.816C159.888 119.816 159.29 119.971 158.757 120.28C158.224 120.579 157.802 121 157.493 121.544C157.194 122.088 157.045 122.707 157.045 123.4C157.045 124.093 157.194 124.712 157.493 125.256C157.802 125.8 158.224 126.227 158.757 126.536C159.29 126.835 159.888 126.984 160.549 126.984ZM175.761 129L173.601 125.88H173.473H171.217V129H168.625V117.8H173.473C174.465 117.8 175.324 117.965 176.049 118.296C176.785 118.627 177.35 119.096 177.745 119.704C178.14 120.312 178.337 121.032 178.337 121.864C178.337 122.696 178.134 123.416 177.729 124.024C177.334 124.621 176.769 125.08 176.033 125.4L178.545 129H175.761ZM175.713 121.864C175.713 121.235 175.51 120.755 175.105 120.424C174.7 120.083 174.108 119.912 173.329 119.912H171.217V123.816H173.329C174.108 123.816 174.7 123.645 175.105 123.304C175.51 122.963 175.713 122.483 175.713 121.864ZM180.391 117.8H185.479C186.695 117.8 187.767 118.035 188.695 118.504C189.633 118.963 190.359 119.613 190.871 120.456C191.393 121.299 191.655 122.28 191.655 123.4C191.655 124.52 191.393 125.501 190.871 126.344C190.359 127.187 189.633 127.843 188.695 128.312C187.767 128.771 186.695 129 185.479 129H180.391V117.8ZM185.351 126.872C186.471 126.872 187.361 126.563 188.023 125.944C188.695 125.315 189.031 124.467 189.031 123.4C189.031 122.333 188.695 121.491 188.023 120.872C187.361 120.243 186.471 119.928 185.351 119.928H182.983V126.872H185.351ZM202.281 126.92V129H193.609V117.8H202.073V119.88H196.185V122.312H201.385V124.328H196.185V126.92H202.281ZM211.48 129L209.32 125.88H209.192H206.936V129H204.344V117.8H209.192C210.184 117.8 211.042 117.965 211.768 118.296C212.504 118.627 213.069 119.096 213.464 119.704C213.858 120.312 214.056 121.032 214.056 121.864C214.056 122.696 213.853 123.416 213.448 124.024C213.053 124.621 212.488 125.08 211.752 125.4L214.264 129H211.48ZM211.432 121.864C211.432 121.235 211.229 120.755 210.824 120.424C210.418 120.083 209.826 119.912 209.048 119.912H206.936V123.816H209.048C209.826 123.816 210.418 123.645 210.824 123.304C211.229 122.963 211.432 122.483 211.432 121.864Z" fill="black"/>
<path d="M19 90L19 104L21 104L21 90L19 90Z" fill="black"/>
<path d="M19 38L19 53L21 53L21 38L19 38Z" fill="black"/>
<path d="M24.0039 60.2012V63.8033H27.5893L24.0039 60.2012Z" fill="black"/>
<path d="M23.6701 64.4693C23.471 64.4693 23.3382 64.3359 23.3382 64.1358V60H12.4492C12.25 60 12.1172 60.1334 12.1172 60.3335V81.0125C12.1172 81.2126 12.25 81.346 12.4492 81.346H27.4208C27.62 81.346 27.7528 81.2126 27.7528 81.0125V64.4693H23.6701ZM14.3422 72.1746H21.181V72.8417H14.3422V72.1746ZM19.288 78.8779H14.3407V78.2108H19.288V78.8779ZM25.5632 76.8441H14.3422V76.177H25.5632V76.8441ZM25.5632 74.8429H14.3422V74.1758H25.5632V74.8429ZM25.5632 70.8405H14.3422V70.1734H25.5632V70.8405ZM25.5632 68.8393H14.3422V68.1723H25.5632V68.8393ZM25.5632 66.804H14.3422V66.137H25.5632V66.804Z" fill="black"/>
<path d="M20 90C9.50131 90 1 81.6764 1 71.4993C1 61.3222 9.49977 53 20 53C30.5002 53 39 61.3236 39 71.5007C39 81.6777 30.4988 90 20 90Z" stroke="black" stroke-width="2"/>
<path d="M19.5 38C9.301 38 1 29.7001 1 19.4993C1 9.2985 9.2995 1 19.5 1C29.7004 1 38 9.29984 38 19.5007C38 29.7015 29.6991 38 19.5 38Z" stroke="black" stroke-width="2"/>
<path d="M19.5 141C9.301 141 1 132.7 1 122.499C1 112.298 9.2995 104 19.5 104C29.7004 104 38 112.3 38 122.501C38 132.701 29.6991 141 19.5 141Z" stroke="black" stroke-width="2"/>
<path d="M19.3008 124.647L9.98166 120.301L8.063 123.12C7.94554 123.316 8.02385 123.59 8.21963 123.707L17.1864 127.936L19.3008 124.647Z" fill="black"/>
<path d="M17.5804 128.445C17.5412 128.484 17.5021 128.524 17.4629 128.524C17.4629 128.524 17.4629 128.524 17.4238 128.524C17.3846 128.524 17.3455 128.563 17.3063 128.563C17.2671 128.563 17.228 128.563 17.1888 128.524L10.1407 125.195L10.1016 129.307C10.1016 129.463 10.1799 129.581 10.3365 129.659L19.3816 133.927V125.626L17.5804 128.445Z" fill="black"/>
<path d="M31.2062 116.11L22.5527 112.038C22.3569 111.96 22.1611 111.999 22.0437 112.194L20.125 115.17L29.4442 119.556L31.3628 116.697C31.4803 116.502 31.402 116.228 31.2062 116.11Z" fill="black"/>
<path d="M19.302 115.171L17.3833 112.195C17.2659 112.039 17.0701 111.96 16.8743 112.039L8.22077 116.111C7.98583 116.228 7.94668 116.502 8.06414 116.698L9.9828 119.557L19.302 115.171Z" fill="black"/>
<path d="M19.7329 115.641L10.5703 119.909L19.7329 124.177L28.8563 119.909L19.7329 115.641Z" fill="black"/>
<path d="M20.125 124.645L22.2394 127.895C22.9834 127.543 19.5768 129.148 29.4833 124.489L31.6369 123.471L29.4833 120.26L20.125 124.645Z" fill="black"/>
<path d="M22.2396 128.563C22.2005 128.563 22.1613 128.602 22.1222 128.602C22.083 128.602 22.0438 128.602 22.0047 128.563C21.9655 128.523 21.9264 128.523 21.8872 128.484L20.0469 125.626V133.927L29.092 129.659C29.2486 129.581 29.3269 129.463 29.3269 129.307L29.2877 125.234C28.5829 125.587 31.9112 124.021 22.2396 128.563Z" fill="black"/>
<path d="M8.27381 13C8.12321 13 8 13.1232 8 13.2738V14.0788L19.5 22.1808L31 14.0788V13.2738C31 13.1232 30.8768 13 30.7262 13H8.27381ZM8 15.4232V25.9485L14.451 19.9767L8 15.4232ZM31 15.4232L24.549 19.9767L31 25.9457V15.4232ZM15.3682 20.6146L8.805 26.6905H30.195L23.6318 20.6146L19.8149 23.3007C19.626 23.4349 19.3713 23.4349 19.1824 23.3007L15.3682 20.6146Z" fill="black"/>
</svg>
