<svg width="226" height="142" viewBox="0 0 226 142" fill="none" xmlns="http://www.w3.org/2000/svg">
<path d="M56.944 14.8V26H54.352V16.88H52.112V14.8H56.944ZM63.6289 20.496H68.1569V22.496H63.6289V20.496ZM78.508 26.192C77.6227 26.192 76.764 26.0747 75.932 25.84C75.1107 25.5947 74.4493 25.28 73.948 24.896L74.828 22.944C75.308 23.296 75.8787 23.5787 76.54 23.792C77.2013 24.0053 77.8627 24.112 78.524 24.112C79.26 24.112 79.804 24.0053 80.156 23.792C80.508 23.568 80.684 23.2747 80.684 22.912C80.684 22.6453 80.5773 22.4267 80.364 22.256C80.1613 22.0747 79.8947 21.9307 79.564 21.824C79.244 21.7173 78.8067 21.6 78.252 21.472C77.3987 21.2693 76.7 21.0667 76.156 20.864C75.612 20.6613 75.1427 20.336 74.748 19.888C74.364 19.44 74.172 18.8427 74.172 18.096C74.172 17.4453 74.348 16.8587 74.7 16.336C75.052 15.8027 75.58 15.3813 76.284 15.072C76.9987 14.7627 77.868 14.608 78.892 14.608C79.6067 14.608 80.3053 14.6933 80.988 14.864C81.6707 15.0347 82.268 15.28 82.78 15.6L81.98 17.568C80.9453 16.9813 79.9107 16.688 78.876 16.688C78.1507 16.688 77.612 16.8053 77.26 17.04C76.9187 17.2747 76.748 17.584 76.748 17.968C76.748 18.352 76.9453 18.64 77.34 18.832C77.7453 19.0133 78.3587 19.1947 79.18 19.376C80.0333 19.5787 80.732 19.7813 81.276 19.984C81.82 20.1867 82.284 20.5067 82.668 20.944C83.0627 21.3813 83.26 21.9733 83.26 22.72C83.26 23.36 83.0787 23.9467 82.716 24.48C82.364 25.0027 81.8307 25.4187 81.116 25.728C80.4013 26.0373 79.532 26.192 78.508 26.192ZM93.7031 23.92V26H85.0311V14.8H93.4951V16.88H87.6071V19.312H92.8071V21.328H87.6071V23.92H93.7031ZM95.7655 14.8H98.3575V23.888H103.974V26H95.7655V14.8ZM114.094 23.92V26H105.422V14.8H113.886V16.88H107.998V19.312H113.198V21.328H107.998V23.92H114.094ZM121.485 26.192C120.344 26.192 119.309 25.9467 118.381 25.456C117.464 24.9547 116.738 24.2667 116.205 23.392C115.682 22.5067 115.421 21.5093 115.421 20.4C115.421 19.2907 115.682 18.2987 116.205 17.424C116.738 16.5387 117.464 15.8507 118.381 15.36C119.309 14.8587 120.349 14.608 121.501 14.608C122.472 14.608 123.346 14.7787 124.125 15.12C124.914 15.4613 125.576 15.952 126.109 16.592L124.445 18.128C123.688 17.2533 122.749 16.816 121.629 16.816C120.936 16.816 120.317 16.9707 119.773 17.28C119.229 17.5787 118.802 18 118.493 18.544C118.194 19.088 118.045 19.7067 118.045 20.4C118.045 21.0933 118.194 21.712 118.493 22.256C118.802 22.8 119.229 23.2267 119.773 23.536C120.317 23.8347 120.936 23.984 121.629 23.984C122.749 23.984 123.688 23.5413 124.445 22.656L126.109 24.192C125.576 24.8427 124.914 25.3387 124.125 25.68C123.336 26.0213 122.456 26.192 121.485 26.192ZM130.07 16.912H126.486V14.8H136.246V16.912H132.662V26H130.07V16.912ZM147.02 14.8C148.012 14.8 148.87 14.9653 149.596 15.296C150.332 15.6267 150.897 16.096 151.292 16.704C151.686 17.312 151.884 18.032 151.884 18.864C151.884 19.6853 151.686 20.4053 151.292 21.024C150.897 21.632 150.332 22.1013 149.596 22.432C148.87 22.752 148.012 22.912 147.02 22.912H144.764V26H142.172V14.8H147.02ZM146.876 20.8C147.654 20.8 148.246 20.6347 148.652 20.304C149.057 19.9627 149.26 19.4827 149.26 18.864C149.26 18.2347 149.057 17.7547 148.652 17.424C148.246 17.0827 147.654 16.912 146.876 16.912H144.764V20.8H146.876ZM160.87 26L158.71 22.88H158.582H156.326V26H153.734V14.8H158.582C159.574 14.8 160.433 14.9653 161.158 15.296C161.894 15.6267 162.46 16.096 162.854 16.704C163.249 17.312 163.446 18.032 163.446 18.864C163.446 19.696 163.244 20.416 162.838 21.024C162.444 21.6213 161.878 22.08 161.142 22.4L163.654 26H160.87ZM160.822 18.864C160.822 18.2347 160.62 17.7547 160.214 17.424C159.809 17.0827 159.217 16.912 158.438 16.912H156.326V20.816H158.438C159.217 20.816 159.809 20.6453 160.214 20.304C160.62 19.9627 160.822 19.4827 160.822 18.864ZM170.924 26.192C169.761 26.192 168.711 25.9413 167.772 25.44C166.844 24.9387 166.113 24.2507 165.58 23.376C165.057 22.4907 164.796 21.4987 164.796 20.4C164.796 19.3013 165.057 18.3147 165.58 17.44C166.113 16.5547 166.844 15.8613 167.772 15.36C168.711 14.8587 169.761 14.608 170.924 14.608C172.087 14.608 173.132 14.8587 174.06 15.36C174.988 15.8613 175.719 16.5547 176.252 17.44C176.785 18.3147 177.052 19.3013 177.052 20.4C177.052 21.4987 176.785 22.4907 176.252 23.376C175.719 24.2507 174.988 24.9387 174.06 25.44C173.132 25.9413 172.087 26.192 170.924 26.192ZM170.924 23.984C171.585 23.984 172.183 23.8347 172.716 23.536C173.249 23.2267 173.665 22.8 173.964 22.256C174.273 21.712 174.428 21.0933 174.428 20.4C174.428 19.7067 174.273 19.088 173.964 18.544C173.665 18 173.249 17.5787 172.716 17.28C172.183 16.9707 171.585 16.816 170.924 16.816C170.263 16.816 169.665 16.9707 169.132 17.28C168.599 17.5787 168.177 18 167.868 18.544C167.569 19.088 167.42 19.7067 167.42 20.4C167.42 21.0933 167.569 21.712 167.868 22.256C168.177 22.8 168.599 23.2267 169.132 23.536C169.665 23.8347 170.263 23.984 170.924 23.984ZM179 14.8H184.088C185.304 14.8 186.376 15.0347 187.304 15.504C188.243 15.9627 188.968 16.6133 189.48 17.456C190.003 18.2987 190.264 19.28 190.264 20.4C190.264 21.52 190.003 22.5013 189.48 23.344C188.968 24.1867 188.243 24.8427 187.304 25.312C186.376 25.7707 185.304 26 184.088 26H179V14.8ZM183.96 23.872C185.08 23.872 185.971 23.5627 186.632 22.944C187.304 22.3147 187.64 21.4667 187.64 20.4C187.64 19.3333 187.304 18.4907 186.632 17.872C185.971 17.2427 185.08 16.928 183.96 16.928H181.592V23.872H183.96ZM197.195 26.192C195.595 26.192 194.347 25.7493 193.451 24.864C192.565 23.9787 192.123 22.7147 192.123 21.072V14.8H194.715V20.976C194.715 22.9813 195.547 23.984 197.211 23.984C198.021 23.984 198.64 23.744 199.067 23.264C199.493 22.7733 199.707 22.0107 199.707 20.976V14.8H202.267V21.072C202.267 22.7147 201.819 23.9787 200.923 24.864C200.037 25.7493 198.795 26.192 197.195 26.192ZM210.188 26.192C209.047 26.192 208.012 25.9467 207.084 25.456C206.167 24.9547 205.441 24.2667 204.908 23.392C204.385 22.5067 204.124 21.5093 204.124 20.4C204.124 19.2907 204.385 18.2987 204.908 17.424C205.441 16.5387 206.167 15.8507 207.084 15.36C208.012 14.8587 209.052 14.608 210.204 14.608C211.175 14.608 212.049 14.7787 212.828 15.12C213.617 15.4613 214.279 15.952 214.812 16.592L213.148 18.128C212.391 17.2533 211.452 16.816 210.332 16.816C209.639 16.816 209.02 16.9707 208.476 17.28C207.932 17.5787 207.505 18 207.196 18.544C206.897 19.088 206.748 19.7067 206.748 20.4C206.748 21.0933 206.897 21.712 207.196 22.256C207.505 22.8 207.932 23.2267 208.476 23.536C209.02 23.8347 209.639 23.984 210.332 23.984C211.452 23.984 212.391 23.5413 213.148 22.656L214.812 24.192C214.279 24.8427 213.617 25.3387 212.828 25.68C212.039 26.0213 211.159 26.192 210.188 26.192ZM218.773 16.912H215.189V14.8H224.949V16.912H221.365V26H218.773V16.912Z" fill="black"/>
<path d="M60.992 74.888V77H52.528V75.32L56.848 71.24C57.3067 70.8027 57.616 70.4293 57.776 70.12C57.936 69.8 58.016 69.4853 58.016 69.176C58.016 68.728 57.8613 68.3867 57.552 68.152C57.2533 67.9067 56.8107 67.784 56.224 67.784C55.7333 67.784 55.2907 67.88 54.896 68.072C54.5013 68.2533 54.1707 68.5307 53.904 68.904L52.016 67.688C52.4533 67.0373 53.056 66.5307 53.824 66.168C54.592 65.7947 55.472 65.608 56.464 65.608C57.296 65.608 58.0213 65.7467 58.64 66.024C59.2693 66.2907 59.7547 66.6747 60.096 67.176C60.448 67.6667 60.624 68.248 60.624 68.92C60.624 69.528 60.496 70.0987 60.24 70.632C59.984 71.1653 59.488 71.7733 58.752 72.456L56.176 74.888H60.992ZM66.8008 71.496H71.3288V73.496H66.8008V71.496ZM86.6719 74.92V77H77.9999V65.8H86.4639V67.88H80.5759V70.312H85.7759V72.328H80.5759V74.92H86.6719ZM99.0063 65.8V77H96.8783L91.2943 70.2V77H88.7343V65.8H90.8783L96.4462 72.6V65.8H99.0063ZM103.976 67.912H100.392V65.8H110.152V67.912H106.568V77H103.976V67.912ZM120.219 74.92V77H111.547V65.8H120.011V67.88H114.123V70.312H119.323V72.328H114.123V74.92H120.219ZM129.417 77L127.257 73.88H127.129H124.873V77H122.281V65.8H127.129C128.121 65.8 128.98 65.9653 129.705 66.296C130.441 66.6267 131.006 67.096 131.401 67.704C131.796 68.312 131.993 69.032 131.993 69.864C131.993 70.696 131.79 71.416 131.385 72.024C130.99 72.6213 130.425 73.08 129.689 73.4L132.201 77H129.417ZM129.369 69.864C129.369 69.2347 129.166 68.7547 128.761 68.424C128.356 68.0827 127.764 67.912 126.985 67.912H124.873V71.816H126.985C127.764 71.816 128.356 71.6453 128.761 71.304C129.166 70.9627 129.369 70.4827 129.369 69.864ZM142.258 77.192C141.373 77.192 140.514 77.0747 139.682 76.84C138.861 76.5947 138.199 76.28 137.698 75.896L138.578 73.944C139.058 74.296 139.629 74.5787 140.29 74.792C140.951 75.0053 141.613 75.112 142.274 75.112C143.01 75.112 143.554 75.0053 143.906 74.792C144.258 74.568 144.434 74.2747 144.434 73.912C144.434 73.6453 144.327 73.4267 144.114 73.256C143.911 73.0747 143.645 72.9307 143.314 72.824C142.994 72.7173 142.557 72.6 142.002 72.472C141.149 72.2693 140.45 72.0667 139.906 71.864C139.362 71.6613 138.893 71.336 138.498 70.888C138.114 70.44 137.922 69.8427 137.922 69.096C137.922 68.4453 138.098 67.8587 138.45 67.336C138.802 66.8027 139.33 66.3813 140.034 66.072C140.749 65.7627 141.618 65.608 142.642 65.608C143.357 65.608 144.055 65.6933 144.738 65.864C145.421 66.0347 146.018 66.28 146.53 66.6L145.73 68.568C144.695 67.9813 143.661 67.688 142.626 67.688C141.901 67.688 141.362 67.8053 141.01 68.04C140.669 68.2747 140.498 68.584 140.498 68.968C140.498 69.352 140.695 69.64 141.09 69.832C141.495 70.0133 142.109 70.1947 142.93 70.376C143.783 70.5787 144.482 70.7813 145.026 70.984C145.57 71.1867 146.034 71.5067 146.418 71.944C146.813 72.3813 147.01 72.9733 147.01 73.72C147.01 74.36 146.829 74.9467 146.466 75.48C146.114 76.0027 145.581 76.4187 144.866 76.728C144.151 77.0373 143.282 77.192 142.258 77.192ZM153.629 65.8C154.621 65.8 155.48 65.9653 156.205 66.296C156.941 66.6267 157.506 67.096 157.901 67.704C158.296 68.312 158.493 69.032 158.493 69.864C158.493 70.6853 158.296 71.4053 157.901 72.024C157.506 72.632 156.941 73.1013 156.205 73.432C155.48 73.752 154.621 73.912 153.629 73.912H151.373V77H148.781V65.8H153.629ZM153.485 71.8C154.264 71.8 154.856 71.6347 155.261 71.304C155.666 70.9627 155.869 70.4827 155.869 69.864C155.869 69.2347 155.666 68.7547 155.261 68.424C154.856 68.0827 154.264 67.912 153.485 67.912H151.373V71.8H153.485ZM169.016 74.92V77H160.344V65.8H168.808V67.88H162.92V70.312H168.12V72.328H162.92V74.92H169.016ZM176.407 77.192C175.265 77.192 174.231 76.9467 173.303 76.456C172.385 75.9547 171.66 75.2667 171.127 74.392C170.604 73.5067 170.343 72.5093 170.343 71.4C170.343 70.2907 170.604 69.2987 171.127 68.424C171.66 67.5387 172.385 66.8507 173.303 66.36C174.231 65.8587 175.271 65.608 176.423 65.608C177.393 65.608 178.268 65.7787 179.047 66.12C179.836 66.4613 180.497 66.952 181.031 67.592L179.367 69.128C178.609 68.2533 177.671 67.816 176.551 67.816C175.857 67.816 175.239 67.9707 174.695 68.28C174.151 68.5787 173.724 69 173.415 69.544C173.116 70.088 172.967 70.7067 172.967 71.4C172.967 72.0933 173.116 72.712 173.415 73.256C173.724 73.8 174.151 74.2267 174.695 74.536C175.239 74.8347 175.857 74.984 176.551 74.984C177.671 74.984 178.609 74.5413 179.367 73.656L181.031 75.192C180.497 75.8427 179.836 76.3387 179.047 76.68C178.257 77.0213 177.377 77.192 176.407 77.192ZM186.367 77.192C185.482 77.192 184.623 77.0747 183.791 76.84C182.97 76.5947 182.309 76.28 181.807 75.896L182.687 73.944C183.167 74.296 183.738 74.5787 184.399 74.792C185.061 75.0053 185.722 75.112 186.383 75.112C187.119 75.112 187.663 75.0053 188.015 74.792C188.367 74.568 188.543 74.2747 188.543 73.912C188.543 73.6453 188.437 73.4267 188.223 73.256C188.021 73.0747 187.754 72.9307 187.423 72.824C187.103 72.7173 186.666 72.6 186.111 72.472C185.258 72.2693 184.559 72.0667 184.015 71.864C183.471 71.6613 183.002 71.336 182.607 70.888C182.223 70.44 182.031 69.8427 182.031 69.096C182.031 68.4453 182.207 67.8587 182.559 67.336C182.911 66.8027 183.439 66.3813 184.143 66.072C184.858 65.7627 185.727 65.608 186.751 65.608C187.466 65.608 188.165 65.6933 188.847 65.864C189.53 66.0347 190.127 66.28 190.639 66.6L189.839 68.568C188.805 67.9813 187.77 67.688 186.735 67.688C186.01 67.688 185.471 67.8053 185.119 68.04C184.778 68.2747 184.607 68.584 184.607 68.968C184.607 69.352 184.805 69.64 185.199 69.832C185.605 70.0133 186.218 70.1947 187.039 70.376C187.893 70.5787 188.591 70.7813 189.135 70.984C189.679 71.1867 190.143 71.5067 190.527 71.944C190.922 72.3813 191.119 72.9733 191.119 73.72C191.119 74.36 190.938 74.9467 190.575 75.48C190.223 76.0027 189.69 76.4187 188.975 76.728C188.261 77.0373 187.391 77.192 186.367 77.192Z" fill="black"/>
<path d="M57.856 122.36C58.8373 122.52 59.5893 122.888 60.112 123.464C60.6347 124.029 60.896 124.733 60.896 125.576C60.896 126.227 60.7253 126.829 60.384 127.384C60.0427 127.928 59.52 128.365 58.816 128.696C58.1227 129.027 57.2693 129.192 56.256 129.192C55.4667 129.192 54.688 129.091 53.92 128.888C53.1627 128.675 52.5173 128.376 51.984 127.992L52.992 126.008C53.4187 126.328 53.9093 126.579 54.464 126.76C55.0293 126.931 55.6053 127.016 56.192 127.016C56.8427 127.016 57.3547 126.893 57.728 126.648C58.1013 126.392 58.288 126.035 58.288 125.576C58.288 124.659 57.5893 124.2 56.192 124.2H55.008V122.488L57.312 119.88H52.544V117.8H60.384V119.48L57.856 122.36ZM66.832 123.496H71.36V125.496H66.832V123.496ZM85.1671 129L83.0071 125.88H82.8791H80.6231V129H78.0311V117.8H82.8791C83.8711 117.8 84.7298 117.965 85.4551 118.296C86.1911 118.627 86.7565 119.096 87.1511 119.704C87.5458 120.312 87.7431 121.032 87.7431 121.864C87.7431 122.696 87.5405 123.416 87.1351 124.024C86.7405 124.621 86.1751 125.08 85.4391 125.4L87.9511 129H85.1671ZM85.1191 121.864C85.1191 121.235 84.9165 120.755 84.5111 120.424C84.1058 120.083 83.5138 119.912 82.7351 119.912H80.6231V123.816H82.7351C83.5138 123.816 84.1058 123.645 84.5111 123.304C84.9165 122.963 85.1191 122.483 85.1191 121.864ZM98.4688 126.92V129H89.7968V117.8H98.2608V119.88H92.3728V122.312H97.5728V124.328H92.3728V126.92H98.4688ZM105.86 129.192C104.719 129.192 103.684 128.947 102.756 128.456C101.839 127.955 101.113 127.267 100.58 126.392C100.057 125.507 99.7959 124.509 99.7959 123.4C99.7959 122.291 100.057 121.299 100.58 120.424C101.113 119.539 101.839 118.851 102.756 118.36C103.684 117.859 104.724 117.608 105.876 117.608C106.847 117.608 107.721 117.779 108.5 118.12C109.289 118.461 109.951 118.952 110.484 119.592L108.82 121.128C108.063 120.253 107.124 119.816 106.004 119.816C105.311 119.816 104.692 119.971 104.148 120.28C103.604 120.579 103.177 121 102.868 121.544C102.569 122.088 102.42 122.707 102.42 123.4C102.42 124.093 102.569 124.712 102.868 125.256C103.177 125.8 103.604 126.227 104.148 126.536C104.692 126.835 105.311 126.984 106.004 126.984C107.124 126.984 108.063 126.541 108.82 125.656L110.484 127.192C109.951 127.843 109.289 128.339 108.5 128.68C107.711 129.021 106.831 129.192 105.86 129.192ZM120.906 126.92V129H112.234V117.8H120.698V119.88H114.81V122.312H120.01V124.328H114.81V126.92H120.906ZM122.969 117.8H125.561V129H122.969V117.8ZM138.924 117.8L134.076 129H131.516L126.684 117.8H129.484L132.892 125.8L136.348 117.8H138.924ZM148.531 126.92V129H139.859V117.8H148.323V119.88H142.435V122.312H147.635V124.328H142.435V126.92H148.531ZM167.237 130.2C166.874 130.648 166.432 130.989 165.909 131.224C165.397 131.459 164.832 131.576 164.213 131.576C163.381 131.576 162.629 131.395 161.957 131.032C161.285 130.68 160.517 130.051 159.653 129.144C158.64 129.016 157.733 128.691 156.933 128.168C156.144 127.645 155.525 126.973 155.077 126.152C154.64 125.32 154.421 124.403 154.421 123.4C154.421 122.301 154.682 121.315 155.205 120.44C155.738 119.555 156.469 118.861 157.397 118.36C158.336 117.859 159.386 117.608 160.549 117.608C161.712 117.608 162.757 117.859 163.685 118.36C164.613 118.861 165.344 119.555 165.877 120.44C166.41 121.315 166.677 122.301 166.677 123.4C166.677 124.701 166.309 125.843 165.573 126.824C164.848 127.805 163.882 128.488 162.677 128.872C162.944 129.149 163.2 129.347 163.445 129.464C163.701 129.592 163.973 129.656 164.261 129.656C164.954 129.656 165.562 129.379 166.085 128.824L167.237 130.2ZM157.045 123.4C157.045 124.093 157.194 124.712 157.493 125.256C157.802 125.8 158.224 126.227 158.757 126.536C159.29 126.835 159.888 126.984 160.549 126.984C161.21 126.984 161.808 126.835 162.341 126.536C162.874 126.227 163.29 125.8 163.589 125.256C163.898 124.712 164.053 124.093 164.053 123.4C164.053 122.707 163.898 122.088 163.589 121.544C163.29 121 162.874 120.579 162.341 120.28C161.808 119.971 161.21 119.816 160.549 119.816C159.888 119.816 159.29 119.971 158.757 120.28C158.224 120.579 157.802 121 157.493 121.544C157.194 122.088 157.045 122.707 157.045 123.4ZM173.601 129.192C172.001 129.192 170.753 128.749 169.857 127.864C168.972 126.979 168.529 125.715 168.529 124.072V117.8H171.121V123.976C171.121 125.981 171.953 126.984 173.617 126.984C174.428 126.984 175.046 126.744 175.473 126.264C175.9 125.773 176.113 125.011 176.113 123.976V117.8H178.673V124.072C178.673 125.715 178.225 126.979 177.329 127.864C176.444 128.749 175.201 129.192 173.601 129.192ZM186.658 129.192C185.496 129.192 184.445 128.941 183.506 128.44C182.578 127.939 181.848 127.251 181.314 126.376C180.792 125.491 180.53 124.499 180.53 123.4C180.53 122.301 180.792 121.315 181.314 120.44C181.848 119.555 182.578 118.861 183.506 118.36C184.445 117.859 185.496 117.608 186.658 117.608C187.821 117.608 188.866 117.859 189.794 118.36C190.722 118.861 191.453 119.555 191.986 120.44C192.52 121.315 192.786 122.301 192.786 123.4C192.786 124.499 192.52 125.491 191.986 126.376C191.453 127.251 190.722 127.939 189.794 128.44C188.866 128.941 187.821 129.192 186.658 129.192ZM186.658 126.984C187.32 126.984 187.917 126.835 188.45 126.536C188.984 126.227 189.4 125.8 189.698 125.256C190.008 124.712 190.162 124.093 190.162 123.4C190.162 122.707 190.008 122.088 189.698 121.544C189.4 121 188.984 120.579 188.45 120.28C187.917 119.971 187.32 119.816 186.658 119.816C185.997 119.816 185.4 119.971 184.866 120.28C184.333 120.579 183.912 121 183.602 121.544C183.304 122.088 183.154 122.707 183.154 123.4C183.154 124.093 183.304 124.712 183.602 125.256C183.912 125.8 184.333 126.227 184.866 126.536C185.4 126.835 185.997 126.984 186.658 126.984ZM196.898 119.912H193.314V117.8H203.074V119.912H199.49V129H196.898V119.912ZM213.141 126.92V129H204.469V117.8H212.933V119.88H207.045V122.312H212.245V124.328H207.045V126.92H213.141Z" fill="black"/>
<path d="M19 90L19 104L21 104L21 90L19 90Z" fill="black"/>
<path d="M19 38L19 53L21 53L21 38L19 38Z" fill="black"/>
<path d="M24.0039 60.2012V63.8033H27.5893L24.0039 60.2012Z" fill="black"/>
<path d="M23.6701 64.4693C23.471 64.4693 23.3382 64.3359 23.3382 64.1358V60H12.4492C12.25 60 12.1172 60.1334 12.1172 60.3335V81.0125C12.1172 81.2126 12.25 81.346 12.4492 81.346H27.4208C27.62 81.346 27.7528 81.2126 27.7528 81.0125V64.4693H23.6701ZM14.3422 72.1746H21.181V72.8417H14.3422V72.1746ZM19.288 78.8779H14.3407V78.2108H19.288V78.8779ZM25.5632 76.8441H14.3422V76.177H25.5632V76.8441ZM25.5632 74.8429H14.3422V74.1758H25.5632V74.8429ZM25.5632 70.8405H14.3422V70.1734H25.5632V70.8405ZM25.5632 68.8393H14.3422V68.1723H25.5632V68.8393ZM25.5632 66.804H14.3422V66.137H25.5632V66.804Z" fill="black"/>
<path d="M20 90C9.50131 90 1 81.6764 1 71.4993C1 61.3222 9.49977 53 20 53C30.5002 53 39 61.3236 39 71.5007C39 81.6777 30.4988 90 20 90Z" stroke="black" stroke-width="2"/>
<path d="M12.6842 17.1571C12.644 17.134 12.6052 17.108 12.5678 17.082C12.5779 17.1744 12.5765 17.2682 12.5664 17.362C12.6425 17.3072 12.723 17.2581 12.8106 17.2192C12.7675 17.2004 12.7244 17.1802 12.6842 17.1571Z" fill="black"/>
<path d="M12.0113 15.8262C11.9352 15.8825 11.8533 15.9301 11.7656 15.9676C11.8518 16.0066 11.9352 16.0542 12.0113 16.1105C12.0012 16.0153 12.0012 15.92 12.0113 15.8262Z" fill="black"/>
<path d="M12.5703 14.8586C12.6465 14.8037 12.7283 14.7561 12.8145 14.7171C12.7283 14.6781 12.6465 14.6305 12.5703 14.5742C12.5789 14.6695 12.5789 14.7647 12.5703 14.8586Z" fill="black"/>
<path d="M12.0113 23.3086C11.9352 23.3649 11.8518 23.4125 11.7656 23.4515C11.8518 23.4905 11.9337 23.5381 12.0113 23.5929C12.0012 23.4991 12.0012 23.4039 12.0113 23.3086Z" fill="black"/>
<path d="M12.5678 22.3386C12.6052 22.3112 12.644 22.2866 12.6842 22.2636C12.7244 22.2405 12.7675 22.2203 12.8106 22.2015C12.7244 22.1625 12.6425 22.1149 12.5664 22.0586C12.5765 22.151 12.5765 22.2448 12.5678 22.3386Z" fill="black"/>
<path d="M19.0171 11.1183C19.0932 11.0635 19.1737 11.0158 19.2599 10.9769C19.1737 10.9379 19.0918 10.8903 19.0156 10.834C19.0271 10.9278 19.0271 11.0231 19.0171 11.1183Z" fill="black"/>
<path d="M14.0483 14.7792C14.0885 14.8023 14.1273 14.8283 14.1647 14.8542C14.1546 14.7619 14.1561 14.668 14.1661 14.5742C14.09 14.6291 14.0095 14.6781 13.9219 14.7171C13.965 14.7359 14.0081 14.7561 14.0483 14.7792Z" fill="black"/>
<path d="M18.4519 12.2274C18.4519 12.1798 18.4548 12.1321 18.4591 12.0859C18.3829 12.1408 18.301 12.1884 18.2148 12.2274C18.301 12.2664 18.3829 12.314 18.4591 12.3688C18.4548 12.3226 18.4519 12.2765 18.4519 12.2274Z" fill="black"/>
<path d="M27.0645 24.5605C26.9884 24.6154 26.9065 24.663 26.8203 24.702C26.9065 24.741 26.9884 24.7886 27.0645 24.8449C27.0559 24.7496 27.0559 24.6544 27.0645 24.5605Z" fill="black"/>
<path d="M21.183 27.1942C21.183 27.2418 21.1801 27.2894 21.1758 27.3356C21.2519 27.2808 21.3338 27.2332 21.42 27.1942C21.3338 27.1552 21.2519 27.1076 21.1758 27.0527C21.1801 27.0989 21.183 27.1451 21.183 27.1942Z" fill="black"/>
<path d="M27.625 23.5929C27.7011 23.5366 27.783 23.489 27.8707 23.4515C27.7845 23.4125 27.7011 23.3649 27.625 23.3086C27.6351 23.4039 27.6351 23.4991 27.625 23.5929Z" fill="black"/>
<path d="M20.6164 28.3027C20.5417 28.3576 20.4598 28.4052 20.375 28.4442C20.4612 28.4832 20.5417 28.5308 20.6178 28.5856C20.6077 28.4904 20.6077 28.3951 20.6164 28.3027Z" fill="black"/>
<path d="M20.6164 11.1169C20.6063 11.0231 20.6077 10.9278 20.6178 10.834C20.5417 10.8888 20.4612 10.9365 20.375 10.9754C20.4612 11.0144 20.5417 11.062 20.6164 11.1169Z" fill="black"/>
<path d="M14.1647 24.5625C14.1273 24.5899 14.0885 24.6145 14.0483 24.6376C14.0081 24.6606 13.965 24.6809 13.9219 24.6996C14.0081 24.7386 14.09 24.7862 14.1661 24.8425C14.1561 24.7501 14.1561 24.6563 14.1647 24.5625Z" fill="black"/>
<path d="M12.5703 24.5605C12.5804 24.6544 12.5804 24.7496 12.5703 24.8449C12.6465 24.79 12.7283 24.741 12.8145 24.702C12.7269 24.663 12.6465 24.6154 12.5703 24.5605Z" fill="black"/>
<path d="M19.0171 28.3008C19.0271 28.396 19.0257 28.4913 19.0156 28.5851C19.0918 28.5303 19.1722 28.4812 19.2599 28.4422C19.1737 28.4033 19.0932 28.3556 19.0171 28.3008Z" fill="black"/>
<path d="M18.4519 27.1942C18.4519 27.1466 18.4548 27.0989 18.4591 27.0527C18.3829 27.1076 18.301 27.1552 18.2148 27.1942C18.301 27.2332 18.3829 27.2808 18.4591 27.3356C18.4548 27.288 18.4519 27.2418 18.4519 27.1942Z" fill="black"/>
<path d="M25.5866 24.639C25.5463 24.6159 25.5075 24.5899 25.4702 24.5625C25.4802 24.6563 25.4788 24.7516 25.4688 24.844C25.5449 24.7877 25.6268 24.74 25.713 24.7011C25.6699 24.6823 25.6268 24.6621 25.5866 24.639Z" fill="black"/>
<path d="M14.1661 17.0781C14.09 17.133 14.0081 17.1806 13.9219 17.2196C14.0081 17.2585 14.09 17.3062 14.1661 17.3625C14.1575 17.2672 14.1575 17.1719 14.1661 17.0781Z" fill="black"/>
<path d="M14.7227 23.5929C14.8002 23.5366 14.8821 23.489 14.9683 23.45C14.8821 23.4111 14.8002 23.3634 14.7227 23.3086C14.7327 23.4024 14.7327 23.4977 14.7227 23.5929Z" fill="black"/>
<path d="M19.0171 13.3359C19.0271 13.4312 19.0257 13.5265 19.0156 13.6203C19.0918 13.5654 19.1722 13.5164 19.2584 13.4774C19.1737 13.4384 19.0932 13.3908 19.0171 13.3359Z" fill="black"/>
<path d="M14.1661 22.0586C14.09 22.1134 14.0081 22.1625 13.9219 22.2015C14.0081 22.2405 14.09 22.2866 14.1661 22.3429C14.1561 22.2491 14.1561 22.1539 14.1661 22.0586Z" fill="black"/>
<path d="M14.7227 16.1105C14.7988 16.0542 14.8807 16.0066 14.9683 15.9691C14.8821 15.9301 14.7988 15.8825 14.7227 15.8262C14.7327 15.9214 14.7327 16.0167 14.7227 16.1105Z" fill="black"/>
<path d="M25.4663 22.3429C25.5424 22.2881 25.6243 22.2405 25.7105 22.2015C25.6229 22.1625 25.5424 22.1134 25.4648 22.0586C25.4763 22.1524 25.4763 22.2477 25.4663 22.3429Z" fill="black"/>
<path d="M20.6178 13.6208C20.6077 13.5255 20.6077 13.4317 20.6164 13.3379C20.5417 13.3927 20.4598 13.4404 20.375 13.4793C20.4612 13.5169 20.5417 13.5645 20.6178 13.6208Z" fill="black"/>
<path d="M24.9097 15.8262C24.8336 15.8825 24.7503 15.9301 24.6641 15.9691C24.7503 16.008 24.8322 16.0557 24.9097 16.1105C24.8997 16.0167 24.8997 15.9214 24.9097 15.8262Z" fill="black"/>
<path d="M27.625 16.1105C27.7026 16.0542 27.7845 16.0066 27.8707 15.9676C27.7845 15.9287 27.7026 15.881 27.625 15.8262C27.6351 15.92 27.6351 16.0153 27.625 16.1105Z" fill="black"/>
<path d="M27.0645 14.8586C27.0545 14.7647 27.0545 14.6695 27.0645 14.5742C26.9884 14.6291 26.9065 14.6781 26.8203 14.7171C26.9079 14.7561 26.9884 14.8037 27.0645 14.8586Z" fill="black"/>
<path d="M21.183 12.2274C21.183 12.275 21.1801 12.3226 21.1758 12.3688C21.2519 12.314 21.3338 12.2664 21.42 12.2274C21.3338 12.1884 21.2519 12.1408 21.1758 12.0859C21.1801 12.1336 21.183 12.1798 21.183 12.2274Z" fill="black"/>
<path d="M27.067 17.0801C27.0297 17.1075 26.9909 17.132 26.9506 17.1551C26.9104 17.1782 26.8673 17.1984 26.8242 17.2172C26.9104 17.2562 26.9923 17.3038 27.0685 17.3601C27.0584 17.2677 27.0584 17.1739 27.067 17.0801Z" fill="black"/>
<path d="M19.0156 25.8008C19.0257 25.8946 19.0257 25.9899 19.0171 26.0851C19.0932 26.0303 19.1737 25.9826 19.2599 25.9437C19.1722 25.9047 19.0903 25.8556 19.0156 25.8008Z" fill="black"/>
<path d="M25.4663 14.8557C25.5036 14.8282 25.5424 14.8037 25.5827 14.7792C25.6229 14.7561 25.666 14.7359 25.7091 14.7171C25.6229 14.6781 25.541 14.6305 25.4648 14.5742C25.4763 14.6666 25.4763 14.7619 25.4663 14.8557Z" fill="black"/>
<path d="M20.6164 26.0837C20.6063 25.9899 20.6077 25.8946 20.6178 25.8008C20.5417 25.8556 20.4612 25.9033 20.375 25.9422C20.4612 25.9812 20.5417 26.0274 20.6164 26.0837Z" fill="black"/>
<path d="M26.9506 22.2636C26.9909 22.2866 27.0297 22.3126 27.067 22.3386C27.057 22.2462 27.0584 22.1524 27.0685 22.0586C26.9923 22.1134 26.9119 22.1625 26.8242 22.2015C26.8673 22.2203 26.9104 22.2405 26.9506 22.2636Z" fill="black"/>
<path d="M24.9097 23.3086C24.8336 23.3649 24.7517 23.4125 24.6641 23.45C24.7503 23.489 24.8336 23.5366 24.9097 23.5929C24.8997 23.4977 24.8997 23.4024 24.9097 23.3086Z" fill="black"/>
<path d="M25.4688 17.3625C25.5449 17.3062 25.6268 17.2585 25.7144 17.2196C25.6282 17.1806 25.5463 17.133 25.4702 17.0781C25.4788 17.1734 25.4788 17.2687 25.4688 17.3625Z" fill="black"/>
<path d="M23.4288 23.5147C23.4705 23.4901 23.5136 23.4714 23.5567 23.4511C23.5136 23.4324 23.4705 23.4121 23.4288 23.3876C22.7775 23.0091 22.5532 22.1699 22.9299 21.5141C23.1728 21.0909 23.6257 20.828 24.1131 20.828C24.3518 20.828 24.5876 20.8915 24.7946 21.0114C24.8349 21.0345 24.8737 21.0605 24.9111 21.0865C24.9068 21.0403 24.9039 20.9955 24.9039 20.9479C24.9039 20.4004 25.226 19.9281 25.6889 19.7085C25.226 19.489 24.9039 19.0166 24.9039 18.4692C24.9039 18.423 24.9068 18.3767 24.9111 18.3305C24.8737 18.3579 24.8349 18.3825 24.7946 18.4056C24.5876 18.5255 24.3518 18.5891 24.1131 18.5891C23.6272 18.5891 23.1728 18.3262 22.9299 17.9029C22.5532 17.2486 22.7775 16.4079 23.4288 16.0295C23.4705 16.0049 23.5136 15.9861 23.5567 15.9659C23.5136 15.9471 23.4705 15.9269 23.4288 15.9024C22.9557 15.6279 22.7099 15.1108 22.753 14.5966C22.5273 14.754 22.257 14.8465 21.9723 14.8465C21.7336 14.8465 21.4979 14.7829 21.2908 14.663C21.2506 14.6399 21.2117 14.6139 21.1744 14.5879C21.1787 14.6327 21.1815 14.6789 21.1815 14.7266C21.1815 15.482 20.5691 16.0974 19.8171 16.0974C19.0652 16.0974 18.4527 15.482 18.4527 14.7266C18.4527 14.6803 18.4556 14.6341 18.4599 14.5879C18.4225 14.6139 18.3837 14.6399 18.3434 14.663C18.1364 14.7829 17.9006 14.8465 17.6619 14.8465C17.3787 14.8465 17.1084 14.7554 16.8812 14.5966C16.9243 15.1108 16.6785 15.6279 16.2055 15.9024C16.1638 15.9269 16.1206 15.9457 16.0775 15.9659C16.1206 15.9847 16.1638 16.0049 16.2055 16.0295C16.8568 16.4079 17.0811 17.2472 16.7044 17.9029C16.4614 18.3262 16.0085 18.5891 15.5211 18.5891C15.2824 18.5891 15.0466 18.5255 14.8396 18.4056C14.7993 18.3825 14.7605 18.3565 14.7231 18.3305C14.7275 18.3753 14.7303 18.4215 14.7303 18.4692C14.7303 19.0166 14.4083 19.489 13.9453 19.7085C14.4083 19.9281 14.7303 20.4004 14.7303 20.9479C14.7303 20.9941 14.7275 21.0403 14.7231 21.0865C14.7605 21.0591 14.7993 21.0345 14.8396 21.0114C15.0466 20.8915 15.2824 20.828 15.5211 20.828C16.0071 20.828 16.4614 21.0909 16.7044 21.5141C17.0811 22.1685 16.8568 23.0091 16.2055 23.3876C16.1638 23.4121 16.1206 23.4309 16.0775 23.4511C16.1206 23.4699 16.1638 23.4901 16.2055 23.5147C16.6785 23.7891 16.9243 24.3063 16.8812 24.8205C17.1069 24.663 17.3772 24.5706 17.6619 24.5706C17.9006 24.5706 18.1364 24.6342 18.3434 24.7541C18.3837 24.7772 18.4225 24.8032 18.4599 24.8292C18.4556 24.7829 18.4527 24.7382 18.4527 24.6905C18.4527 23.935 19.0652 23.3197 19.8171 23.3197C20.5691 23.3197 21.1815 23.935 21.1815 24.6905C21.1815 24.7367 21.1787 24.7829 21.1744 24.8292C21.2117 24.8017 21.2506 24.7772 21.2908 24.7541C21.4979 24.6342 21.7336 24.5706 21.9723 24.5706C22.2556 24.5706 22.5259 24.6616 22.753 24.8205C22.7099 24.3063 22.9557 23.7891 23.4288 23.5147Z" fill="black"/>
<path d="M18.707 27.1933C18.707 27.8086 19.2045 28.3084 19.817 28.3084C20.4295 28.3084 20.9269 27.8086 20.9269 27.1933C20.9269 26.5779 20.4295 26.0781 19.817 26.0781C19.2031 26.0781 18.707 26.5765 18.707 27.1933Z" fill="black"/>
<path d="M18.707 29.6933C18.707 30.3086 19.2045 30.8084 19.817 30.8084C20.4295 30.8084 20.9269 30.3086 20.9269 29.6933C20.9269 29.0779 20.4295 28.5781 19.817 28.5781C19.2031 28.5796 18.707 29.0779 18.707 29.6933Z" fill="black"/>
<path d="M19.816 25.806C20.2847 25.806 20.6859 25.5127 20.8483 25.0996H18.7852C18.9462 25.5127 19.3459 25.806 19.816 25.806Z" fill="black"/>
<path d="M19.817 23.5762C19.2045 23.5762 18.707 24.076 18.707 24.6913C18.707 24.8357 18.7358 24.973 18.7847 25.0986H20.8479C20.8967 24.9715 20.9255 24.8343 20.9255 24.6913C20.9255 24.076 20.4295 23.5762 19.817 23.5762Z" fill="black"/>
<path d="M21.4176 29.4101C21.593 29.5112 21.7828 29.5603 21.9712 29.5603C22.3551 29.5603 22.7274 29.361 22.933 29.0028C23.2393 28.4698 23.0581 27.788 22.5276 27.4803C22.3522 27.3792 22.1624 27.3301 21.974 27.3301C21.5902 27.3301 21.2178 27.5294 21.0122 27.8876C20.7059 28.4207 20.8871 29.1024 21.4176 29.4101Z" fill="black"/>
<path d="M16.7321 25.3379C16.7235 25.3538 16.7163 25.3712 16.7077 25.3871C16.699 25.4029 16.6875 25.4174 16.6775 25.4333C16.4086 25.9591 16.5941 26.6091 17.1088 26.9066C17.2842 27.0078 17.474 27.0569 17.6623 27.0569C18.0462 27.0569 18.4186 26.8575 18.6242 26.4993C18.8945 26.0284 18.7838 25.4419 18.3884 25.0996H16.9406C16.8601 25.1661 16.7896 25.2469 16.7321 25.3379Z" fill="black"/>
<path d="M17.6621 24.8262C17.399 24.8262 17.1402 24.923 16.9375 25.0977H18.3853C18.3336 25.053 18.2761 25.0111 18.2142 24.975C18.0403 24.8738 17.849 24.8262 17.6621 24.8262Z" fill="black"/>
<path d="M17.6593 27.3301C17.471 27.3301 17.2797 27.3777 17.1058 27.4803C16.5752 27.788 16.3926 28.4698 16.7003 29.0028C16.9059 29.361 17.2783 29.5603 17.6622 29.5603C17.8505 29.5603 18.0418 29.5127 18.2157 29.4101C18.7463 29.1024 18.9289 28.4207 18.6212 27.8876C18.4156 27.5294 18.0432 27.3301 17.6593 27.3301Z" fill="black"/>
<path d="M22.6953 25.0996H21.2475C20.8521 25.4419 20.7414 26.0284 21.0117 26.4993C21.2173 26.8575 21.5897 27.0569 21.9736 27.0569C22.1619 27.0569 22.3531 27.0092 22.5271 26.9066C23.0418 26.6076 23.2273 25.9576 22.9584 25.4333C22.9484 25.4174 22.9369 25.4029 22.9282 25.3871C22.9196 25.3712 22.9124 25.3553 22.9038 25.3379C22.8434 25.2484 22.7744 25.1675 22.6953 25.0996Z" fill="black"/>
<path d="M21.9746 24.8262C21.7863 24.8262 21.5951 24.8738 21.4211 24.9764C21.3593 25.0125 21.3032 25.0544 21.25 25.0992H22.6978C22.4951 24.923 22.2377 24.8262 21.9746 24.8262Z" fill="black"/>
<path d="M20.9269 12.2284C20.9269 11.6131 20.4295 11.1133 19.817 11.1133C19.2045 11.1133 18.707 11.6131 18.707 12.2284C18.707 12.8438 19.2045 13.3435 19.817 13.3435C20.4309 13.3435 20.9269 12.8452 20.9269 12.2284Z" fill="black"/>
<path d="M19.8175 13.6133C19.3488 13.6133 18.9476 13.9065 18.7852 14.3196H20.8483C20.6859 13.9065 20.2862 13.6133 19.8175 13.6133Z" fill="black"/>
<path d="M19.8195 15.8447C20.4319 15.8447 20.9294 15.3449 20.9294 14.7296C20.9294 14.5852 20.9006 14.4479 20.8518 14.3223H18.7886C18.7397 14.4494 18.7109 14.5866 18.7109 14.7296C18.7095 15.3449 19.2055 15.8447 19.8195 15.8447Z" fill="black"/>
<path d="M20.9269 9.72646C20.9269 9.11111 20.4295 8.61133 19.817 8.61133C19.2045 8.61133 18.707 9.11111 18.707 9.72646C18.707 10.3418 19.2045 10.8416 19.817 10.8416C20.4309 10.8401 20.9269 10.3418 20.9269 9.72646Z" fill="black"/>
<path d="M22.9038 14.0802C22.9124 14.0644 22.9196 14.047 22.9282 14.0311C22.9369 14.0152 22.9484 14.0008 22.9584 13.9849C23.2273 13.4591 23.0418 12.8091 22.5271 12.5116C22.3517 12.4104 22.1619 12.3613 21.9736 12.3613C21.5897 12.3613 21.2173 12.5607 21.0117 12.9189C20.7414 13.3898 20.8521 13.9762 21.2475 14.3186H22.6953C22.7744 14.2536 22.8449 14.1727 22.9038 14.0802Z" fill="black"/>
<path d="M21.9732 14.5938C22.2363 14.5938 22.4951 14.497 22.6978 14.3223H21.25C21.3018 14.367 21.3593 14.4089 21.4211 14.445C21.5936 14.5462 21.7848 14.5938 21.9732 14.5938Z" fill="black"/>
<path d="M18.2151 10.0116C18.0397 9.91044 17.8499 9.86133 17.6615 9.86133C17.2777 9.86133 16.9053 10.0607 16.6997 10.4189C16.3934 10.9519 16.5746 11.6337 17.1051 11.9414C17.2805 12.0425 17.4703 12.0916 17.6587 12.0916C18.0426 12.0916 18.4149 11.8922 18.6205 11.534C18.9268 11.001 18.7456 10.3192 18.2151 10.0116Z" fill="black"/>
<path d="M16.9367 14.3205H18.3845C18.7799 13.9782 18.8906 13.3917 18.6203 12.9208C18.4147 12.5626 18.0423 12.3633 17.6584 12.3633C17.4701 12.3633 17.2789 12.4109 17.1049 12.5135C16.5902 12.8125 16.4047 13.4625 16.6736 13.9869C16.6836 14.0028 16.6951 14.0172 16.7038 14.0331C16.7124 14.049 16.7196 14.0649 16.7282 14.0822C16.7886 14.1718 16.8576 14.2526 16.9367 14.3205Z" fill="black"/>
<path d="M17.6646 14.5933C17.8529 14.5933 18.0442 14.5456 18.2181 14.4431C18.28 14.407 18.336 14.3651 18.3892 14.3203H16.9414C17.1427 14.4965 17.4001 14.5933 17.6646 14.5933Z" fill="black"/>
<path d="M21.9747 12.0916C22.163 12.0916 22.3543 12.0439 22.5282 11.9414C23.0588 11.6337 23.2414 10.9519 22.9337 10.4189C22.7281 10.0607 22.3557 9.86133 21.9718 9.86133C21.7835 9.86133 21.5922 9.90899 21.4183 10.0116C20.8877 10.3192 20.7051 11.001 21.0128 11.534C21.2184 11.8922 21.5908 12.0916 21.9747 12.0916Z" fill="black"/>
<path d="M13.3663 22.3379C13.178 22.3379 12.9868 22.3856 12.8128 22.4881C12.2823 22.7958 12.0997 23.4776 12.4074 24.0106C12.613 24.3688 12.9853 24.5681 13.3692 24.5681C13.5576 24.5681 13.7488 24.5205 13.9228 24.4179C14.4533 24.1103 14.6359 23.4285 14.3282 22.8955C14.1226 22.5372 13.7488 22.3379 13.3663 22.3379Z" fill="black"/>
<path d="M11.2101 23.5879C11.0217 23.5879 10.8305 23.6356 10.6566 23.7381C10.126 24.0458 9.94343 24.7276 10.2511 25.2606C10.4567 25.6188 10.8291 25.8181 11.213 25.8181C11.4013 25.8181 11.5925 25.7705 11.7665 25.6679C12.297 25.3603 12.4796 24.6785 12.172 24.1455C11.9664 23.7872 11.594 23.5879 11.2101 23.5879Z" fill="black"/>
<path d="M14.5627 22.7568C14.7683 23.115 15.1407 23.3143 15.5246 23.3143C15.5792 23.3143 15.6338 23.3086 15.687 23.3013L14.6547 21.5059C14.3801 21.8525 14.3283 22.348 14.5627 22.7568Z" fill="black"/>
<path d="M16.4851 21.6455C16.2795 21.2872 15.9071 21.0879 15.5232 21.0879C15.3349 21.0879 15.1436 21.1356 14.9697 21.2381C14.846 21.3103 14.7411 21.4028 14.6562 21.5097L15.6886 23.3051C15.8223 23.2849 15.9545 23.2416 16.0796 23.1694C16.6102 22.8603 16.7928 22.1785 16.4851 21.6455Z" fill="black"/>
<path d="M12.2578 25.953C12.2578 26.5684 12.7553 27.0682 13.3678 27.0682C13.9802 27.0682 14.4777 26.5684 14.4777 25.953C14.4777 25.3377 13.9802 24.8379 13.3678 24.8379C12.7538 24.8393 12.2578 25.3377 12.2578 25.953Z" fill="black"/>
<path d="M13.431 19.8379C13.4095 19.8393 13.3893 19.8408 13.3678 19.8408C13.3462 19.8408 13.3261 19.8379 13.3045 19.8379C12.7208 19.8711 12.2578 20.355 12.2578 20.9487C12.2578 21.564 12.7553 22.0638 13.3678 22.0638C13.9084 22.0638 14.3598 21.6738 14.4576 21.1596L13.733 19.8971C13.6366 19.8639 13.5345 19.8437 13.431 19.8379Z" fill="black"/>
<path d="M13.7305 19.8965L14.4551 21.1589C14.468 21.0911 14.4752 21.0203 14.4752 20.9495C14.4752 20.4613 14.1632 20.0482 13.7305 19.8965Z" fill="black"/>
<path d="M11.7659 21.2362C11.5905 21.1351 11.4007 21.0859 11.2123 21.0859C10.8284 21.0859 10.4561 21.2853 10.2505 21.6435C9.94423 22.1765 10.1254 22.8583 10.6559 23.166C10.8313 23.2671 11.0211 23.3162 11.2095 23.3162C11.5933 23.3162 11.9657 23.1169 12.1713 22.7586C12.4776 22.2256 12.2964 21.5438 11.7659 21.2362Z" fill="black"/>
<path d="M15.8886 23.6509C15.7692 23.609 15.647 23.5859 15.5248 23.5859C15.1409 23.5859 14.7686 23.7853 14.563 24.1435C14.2567 24.6765 14.4379 25.3583 14.9684 25.666C15.1438 25.7671 15.3336 25.8162 15.522 25.8162C15.8886 25.8162 16.2437 25.6313 16.4536 25.3034C16.4622 25.2875 16.4694 25.2702 16.4781 25.2543C16.4867 25.2384 16.4982 25.224 16.5083 25.2081C16.5571 25.1113 16.5916 25.0116 16.6118 24.9091L15.8886 23.6509Z" fill="black"/>
<path d="M16.0765 23.7376C16.0147 23.7015 15.9514 23.6755 15.8867 23.6523L16.6099 24.9119C16.6962 24.4598 16.4963 23.9817 16.0765 23.7376Z" fill="black"/>
<path d="M16.4531 25.305C16.4632 25.2891 16.4747 25.2761 16.4834 25.2601C16.492 25.2442 16.5007 25.2269 16.5079 25.2109C16.4978 25.2269 16.4862 25.2413 16.4776 25.2572C16.469 25.2717 16.4618 25.2876 16.4531 25.305Z" fill="black"/>
<path d="M26.2677 17.0818C26.456 17.0818 26.6472 17.0342 26.8212 16.9316C27.3517 16.6239 27.5343 15.9421 27.2266 15.4091C27.021 15.0509 26.6487 14.8516 26.2648 14.8516C26.0764 14.8516 25.8852 14.8992 25.7112 15.0018C25.1807 15.3095 24.9981 15.9912 25.3058 16.5243C25.5114 16.8825 25.8852 17.0818 26.2677 17.0818Z" fill="black"/>
<path d="M25.0696 16.6611C24.864 16.3029 24.4917 16.1035 24.1078 16.1035C24.0531 16.1035 23.9985 16.1093 23.9453 16.1165L24.9776 17.912C25.2522 17.5653 25.304 17.0699 25.0696 16.6611Z" fill="black"/>
<path d="M23.1495 17.7769C23.3551 18.1351 23.7275 18.3344 24.1114 18.3344C24.2997 18.3344 24.491 18.2868 24.6649 18.1842C24.7886 18.112 24.8935 18.0196 24.9784 17.9127L23.9461 16.1172C23.8124 16.1374 23.6801 16.1807 23.555 16.253C23.0245 16.5621 22.8419 17.2439 23.1495 17.7769Z" fill="black"/>
<path d="M28.4239 15.8318C28.6123 15.8318 28.8035 15.7842 28.9774 15.6816C29.508 15.3739 29.6906 14.6921 29.3829 14.1591C29.1773 13.8009 28.8049 13.6016 28.421 13.6016C28.2327 13.6016 28.0415 13.6492 27.8675 13.7518C27.337 14.0595 27.1544 14.7412 27.462 15.2743C27.6676 15.6325 28.04 15.8318 28.4239 15.8318Z" fill="black"/>
<path d="M26.2062 19.5814C26.2278 19.58 26.2479 19.5785 26.2695 19.5785C26.2911 19.5785 26.3112 19.5814 26.3328 19.5814C26.9165 19.5482 27.3795 19.0643 27.3795 18.4706C27.3795 17.8553 26.882 17.3555 26.2695 17.3555C25.7289 17.3555 25.2775 17.7455 25.1797 18.2597L25.9043 19.5222C25.9992 19.5539 26.1013 19.5756 26.2062 19.5814Z" fill="black"/>
<path d="M25.901 19.5222L25.1764 18.2598C25.1634 18.3277 25.1562 18.3984 25.1562 18.4692C25.1562 18.9589 25.4682 19.372 25.901 19.5222Z" fill="black"/>
<path d="M26.2662 14.5838C26.8792 14.5838 27.3761 14.0845 27.3761 13.4686C27.3761 12.8528 26.8792 12.3535 26.2662 12.3535C25.6532 12.3535 25.1562 12.8528 25.1562 13.4686C25.1562 14.0845 25.6532 14.5838 26.2662 14.5838Z" fill="black"/>
<path d="M23.7466 15.7688C23.866 15.8107 23.9882 15.8338 24.1104 15.8338C24.4943 15.8338 24.8666 15.6344 25.0722 15.2762C25.3785 14.7432 25.1973 14.0614 24.6668 13.7537C24.4914 13.6526 24.3016 13.6035 24.1133 13.6035C23.7466 13.6035 23.3915 13.7884 23.1816 14.1163C23.173 14.1322 23.1658 14.1495 23.1571 14.1654C23.1485 14.1813 23.137 14.1957 23.127 14.2116C23.0781 14.3084 23.0436 14.4081 23.0234 14.5106L23.7466 15.7688Z" fill="black"/>
<path d="M23.5571 15.6841C23.6189 15.7202 23.6821 15.7462 23.7468 15.7693L23.0236 14.5098C22.9374 14.9619 23.1372 15.44 23.5571 15.6841Z" fill="black"/>
<path d="M23.1797 14.1152C23.1696 14.1312 23.1581 14.1442 23.1495 14.1601C23.1408 14.176 23.1322 14.1934 23.125 14.2093C23.1351 14.1934 23.1466 14.1789 23.1552 14.163C23.1639 14.1485 23.1711 14.1326 23.1797 14.1152Z" fill="black"/>
<path d="M27.8669 18.1855C28.0423 18.2866 28.232 18.3357 28.4204 18.3357C28.8043 18.3357 29.1767 18.1364 29.3822 17.7782C29.6885 17.2452 29.5073 16.5634 28.9768 16.2557C28.8014 16.1546 28.6116 16.1055 28.4233 16.1055C28.0394 16.1055 27.667 16.3048 27.4614 16.663C27.1552 17.196 27.3363 17.8778 27.8669 18.1855Z" fill="black"/>
<path d="M26.267 22.3379C25.8831 22.3379 25.5108 22.5372 25.3052 22.8955C24.9989 23.4285 25.1801 24.1103 25.7106 24.4179C25.886 24.519 26.0758 24.5681 26.2641 24.5681C26.648 24.5681 27.0204 24.3688 27.226 24.0106C27.5322 23.4776 27.3511 22.7958 26.8206 22.4881C26.6466 22.3856 26.4554 22.3379 26.267 22.3379Z" fill="black"/>
<path d="M27.8669 25.6679C28.0423 25.769 28.232 25.8181 28.4204 25.8181C28.8043 25.8181 29.1767 25.6188 29.3822 25.2606C29.6885 24.7276 29.5073 24.0458 28.9768 23.7381C28.8014 23.637 28.6116 23.5879 28.4233 23.5879C28.0394 23.5879 27.667 23.7872 27.4614 24.1455C27.1552 24.6785 27.3363 25.3603 27.8669 25.6679Z" fill="black"/>
<path d="M24.1092 23.3143C24.4931 23.3143 24.8655 23.115 25.0711 22.7568C25.3054 22.348 25.2537 21.854 24.9776 21.5059L23.9453 23.3013C23.9999 23.31 24.0546 23.3143 24.1092 23.3143Z" fill="black"/>
<path d="M24.6643 21.2362C24.4889 21.1351 24.2991 21.0859 24.1108 21.0859C23.7269 21.0859 23.3545 21.2853 23.1489 21.6435C22.8427 22.1765 23.0238 22.8583 23.5544 23.166C23.678 23.2382 23.8117 23.2815 23.9454 23.3017L24.9777 21.5063C24.8929 21.4023 24.788 21.3084 24.6643 21.2362Z" fill="black"/>
<path d="M28.4239 23.3162C28.6123 23.3162 28.8035 23.2685 28.9774 23.166C29.508 22.8583 29.6906 22.1765 29.3829 21.6435C29.1773 21.2853 28.8049 21.0859 28.421 21.0859C28.2327 21.0859 28.0415 21.1336 27.8675 21.2362C27.337 21.5438 27.1544 22.2256 27.462 22.7586C27.6676 23.1169 28.04 23.3162 28.4239 23.3162Z" fill="black"/>
<path d="M23.1231 25.21C23.1331 25.2259 23.1446 25.2404 23.1532 25.2563C23.1619 25.2721 23.1691 25.288 23.1777 25.3054C23.3876 25.6333 23.7427 25.8181 24.1094 25.8181C24.2977 25.8181 24.4889 25.7705 24.6629 25.6679C25.1934 25.3603 25.376 24.6785 25.0683 24.1455C24.8627 23.7872 24.4904 23.5879 24.1065 23.5879C23.9843 23.5879 23.8621 23.611 23.7427 23.6529L23.0195 24.9125C23.0397 25.0136 23.0742 25.1132 23.1231 25.21Z" fill="black"/>
<path d="M23.0231 24.9119L23.7463 23.6523C23.6816 23.6755 23.6183 23.7015 23.5565 23.7376C23.1381 23.9817 22.9383 24.4598 23.0231 24.9119Z" fill="black"/>
<path d="M23.125 25.2109C23.1336 25.2269 23.1408 25.2442 23.1495 25.2601C23.1581 25.276 23.1696 25.2905 23.1797 25.305C23.1711 25.2891 23.1639 25.2717 23.1552 25.2558C23.1466 25.2413 23.1351 25.2269 23.125 25.2109Z" fill="black"/>
<path d="M27.2921 26.3779C27.5267 25.8089 27.2578 25.1566 26.6914 24.9209C26.1251 24.6852 25.4758 24.9554 25.2412 25.5244C25.0066 26.0934 25.2755 26.7458 25.8419 26.9814C26.4082 27.2171 27.0575 26.9469 27.2921 26.3779Z" fill="black"/>
<path d="M25.1797 21.1596C25.2775 21.6753 25.7275 22.0638 26.2695 22.0638C26.882 22.0638 27.3795 21.564 27.3795 20.9487C27.3795 20.355 26.9165 19.8697 26.3328 19.8379C26.3112 19.8393 26.2911 19.8408 26.2695 19.8408C26.2479 19.8408 26.2278 19.8379 26.2062 19.8379C26.1013 19.8437 26.0006 19.8639 25.9058 19.8971L25.1797 21.1596Z" fill="black"/>
<path d="M25.1562 20.9495C25.1562 21.0217 25.1634 21.0911 25.1764 21.1589L25.901 19.8965C25.4682 20.0482 25.1562 20.4613 25.1562 20.9495Z" fill="black"/>
<path d="M26.3296 19.8369C26.308 19.8354 26.2879 19.834 26.2663 19.834C26.2448 19.834 26.2247 19.8354 26.2031 19.8369C26.2247 19.8383 26.2448 19.8398 26.2663 19.8398C26.2865 19.8412 26.308 19.8383 26.3296 19.8369Z" fill="black"/>
<path d="M13.9221 15.0018C13.7467 14.9007 13.5569 14.8516 13.3686 14.8516C12.9847 14.8516 12.6123 15.0509 12.4067 15.4091C12.1005 15.9421 12.2816 16.6239 12.8122 16.9316C12.9876 17.0327 13.1774 17.0818 13.3657 17.0818C13.7496 17.0818 14.122 16.8825 14.3276 16.5243C14.6352 15.9912 14.4526 15.3095 13.9221 15.0018Z" fill="black"/>
<path d="M15.5244 16.1035C15.1406 16.1035 14.7682 16.3029 14.5626 16.6611C14.3282 17.0699 14.38 17.5639 14.656 17.912L15.6884 16.1165C15.6337 16.1093 15.5791 16.1035 15.5244 16.1035Z" fill="black"/>
<path d="M14.9697 18.1847C15.1451 18.2858 15.3349 18.335 15.5232 18.335C15.9071 18.335 16.2795 18.1356 16.4851 17.7774C16.7913 17.2444 16.6102 16.5626 16.0796 16.2549C15.956 16.1827 15.8223 16.1394 15.6886 16.1191L14.6562 17.9146C14.7411 18.0186 14.846 18.1125 14.9697 18.1847Z" fill="black"/>
<path d="M11.7659 13.7518C11.5905 13.6507 11.4007 13.6016 11.2123 13.6016C10.8284 13.6016 10.4561 13.8009 10.2505 14.1591C9.94423 14.6921 10.1254 15.3739 10.6559 15.6816C10.8313 15.7827 11.0211 15.8318 11.2095 15.8318C11.5933 15.8318 11.9657 15.6325 12.1713 15.2743C12.4776 14.7412 12.2964 14.0595 11.7659 13.7518Z" fill="black"/>
<path d="M16.5089 14.2097C16.4988 14.1938 16.4873 14.1793 16.4787 14.1635C16.4701 14.1476 16.4629 14.1317 16.4543 14.1143C16.2443 13.7865 15.8892 13.6016 15.5226 13.6016C15.3342 13.6016 15.143 13.6492 14.9691 13.7518C14.4385 14.0595 14.2559 14.7412 14.5636 15.2743C14.7692 15.6325 15.1416 15.8318 15.5255 15.8318C15.6477 15.8318 15.7699 15.8087 15.8892 15.7668L16.6124 14.5072C16.5923 14.4061 16.5578 14.3065 16.5089 14.2097Z" fill="black"/>
<path d="M16.6138 14.5098L15.8906 15.7693C15.9553 15.7462 16.0186 15.7202 16.0804 15.6841C16.4988 15.44 16.6986 14.9619 16.6138 14.5098Z" fill="black"/>
<path d="M16.5079 14.2112C16.4992 14.1953 16.492 14.178 16.4834 14.162C16.4747 14.1461 16.4632 14.1317 16.4531 14.1172C16.4618 14.1331 16.469 14.1505 16.4776 14.1664C16.4863 14.1809 16.4978 14.1953 16.5079 14.2112Z" fill="black"/>
<path d="M11.2101 16.1035C11.0217 16.1035 10.8305 16.1512 10.6566 16.2537C10.126 16.5614 9.94343 17.2432 10.2511 17.7762C10.4567 18.1344 10.8291 18.3338 11.213 18.3338C11.4013 18.3338 11.5925 18.2861 11.7665 18.1835C12.297 17.8759 12.4796 17.1941 12.172 16.6611C11.9664 16.3043 11.594 16.1035 11.2101 16.1035Z" fill="black"/>
<path d="M14.4576 18.2597C14.3598 17.744 13.9098 17.3555 13.3678 17.3555C12.7553 17.3555 12.2578 17.8553 12.2578 18.4706C12.2578 19.0643 12.7208 19.5496 13.3045 19.5814C13.3261 19.58 13.3462 19.5785 13.3678 19.5785C13.3893 19.5785 13.4095 19.5814 13.431 19.5814C13.536 19.5756 13.6366 19.5554 13.7315 19.5222L14.4576 18.2597Z" fill="black"/>
<path d="M14.4752 18.4692C14.4752 18.397 14.468 18.3277 14.4551 18.2598L13.7305 19.5222C14.1632 19.3706 14.4752 18.9574 14.4752 18.4692Z" fill="black"/>
<path d="M13.3047 19.581C13.3262 19.5825 13.3464 19.5839 13.3679 19.5839C13.3895 19.5839 13.4096 19.5825 13.4311 19.581C13.4096 19.5796 13.3895 19.5781 13.3679 19.5781C13.3464 19.5781 13.3262 19.5796 13.3047 19.581Z" fill="black"/>
<path d="M14.4777 13.4686C14.4777 12.8533 13.9802 12.3535 13.3678 12.3535C12.7553 12.3535 12.2578 12.8533 12.2578 13.4686C12.2578 14.084 12.7553 14.5838 13.3678 14.5838C13.9817 14.5823 14.4777 14.084 14.4777 13.4686Z" fill="black"/>
<path d="M19.5 38C9.301 38 1 29.7001 1 19.4993C1 9.2985 9.2995 1 19.5 1C29.7004 1 38 9.29984 38 19.5007C38 29.7015 29.6991 38 19.5 38Z" stroke="black" stroke-width="2"/>
<path d="M19.5 141C9.301 141 1 132.7 1 122.499C1 112.298 9.2995 104 19.5 104C29.7004 104 38 112.3 38 122.501C38 132.701 29.6991 141 19.5 141Z" stroke="black" stroke-width="2"/>
<path d="M24.8778 112H13.1536C12.5133 112 12 112.524 12 113.18V131.82C12 132.475 12.5119 133 13.1536 133H24.8464C25.4866 133 26 132.476 26 131.82V113.18C25.9986 112.525 25.4866 112 24.8778 112ZM14.0833 114.753C14.0833 114.556 14.243 114.393 14.4355 114.393H23.6614C23.8539 114.393 24.0136 114.556 24.0136 114.753V118.456C24.0136 118.652 23.8539 118.816 23.6614 118.816H14.4042C14.2116 118.816 14.0519 118.652 14.0519 118.456V114.753H14.0833ZM15.6205 131.23C15.6205 131.361 15.5249 131.459 15.3966 131.459H14.0505C13.9222 131.459 13.8266 131.361 13.8266 131.23V129.853C13.8266 129.722 13.9222 129.624 14.0505 129.624H15.3638C15.4922 129.624 15.5877 129.722 15.5877 129.853V131.23H15.6205ZM15.6205 128.086C15.6205 128.217 15.5249 128.315 15.3966 128.315H14.0505C13.9222 128.315 13.8266 128.217 13.8266 128.086V126.743C13.8266 126.611 13.9222 126.514 14.0505 126.514H15.3638C15.4922 126.514 15.5877 126.611 15.5877 126.743V128.086H15.6205ZM15.6205 124.974C15.6205 125.105 15.5249 125.203 15.3966 125.203H14.0505C13.9222 125.203 13.8266 125.105 13.8266 124.974V123.631C13.8266 123.5 13.9222 123.402 14.0505 123.402H15.3638C15.4922 123.402 15.5877 123.5 15.5877 123.631V124.974H15.6205ZM15.6205 121.861C15.6205 121.992 15.5249 122.09 15.3966 122.09H14.0505C13.9222 122.09 13.8266 121.992 13.8266 121.861V120.518C13.8266 120.386 13.9222 120.289 14.0505 120.289H15.3638C15.4922 120.289 15.5877 120.386 15.5877 120.518V121.861H15.6205ZM18.471 131.23C18.471 131.361 18.3754 131.459 18.2471 131.459H16.9338C16.8055 131.459 16.7099 131.361 16.7099 131.23V129.853C16.7099 129.722 16.8055 129.624 16.9338 129.624H18.2471C18.3754 129.624 18.471 129.722 18.471 129.853C18.471 129.855 18.471 131.23 18.471 131.23ZM18.471 128.086C18.471 128.217 18.3754 128.315 18.2471 128.315H16.9338C16.8055 128.315 16.7099 128.217 16.7099 128.086V126.743C16.7099 126.611 16.8055 126.514 16.9338 126.514H18.2471C18.3754 126.514 18.471 126.611 18.471 126.743V128.086ZM18.471 124.974C18.471 125.105 18.3754 125.203 18.2471 125.203H16.9338C16.8055 125.203 16.7099 125.105 16.7099 124.974V123.631C16.7099 123.5 16.8055 123.402 16.9338 123.402H18.2471C18.3754 123.402 18.471 123.5 18.471 123.631V124.974ZM18.471 121.861C18.471 121.992 18.3754 122.09 18.2471 122.09H16.9338C16.8055 122.09 16.7099 121.992 16.7099 121.861V120.518C16.7099 120.386 16.8055 120.289 16.9338 120.289H18.2471C18.3754 120.289 18.471 120.386 18.471 120.518V121.861ZM21.3229 131.23C21.3229 131.361 21.2273 131.459 21.099 131.459H19.7857C19.6574 131.459 19.5618 131.361 19.5618 131.23V129.853C19.5618 129.722 19.6574 129.624 19.7857 129.624H21.099C21.2273 129.624 21.3229 129.722 21.3229 129.853V131.23ZM21.3229 128.086C21.3229 128.217 21.2273 128.315 21.099 128.315H19.7857C19.6574 128.315 19.5618 128.217 19.5618 128.086V126.743C19.5618 126.611 19.6574 126.514 19.7857 126.514H21.099C21.2273 126.514 21.3229 126.611 21.3229 126.743V128.086ZM21.3229 124.974C21.3229 125.105 21.2273 125.203 21.099 125.203H19.7857C19.6574 125.203 19.5618 125.105 19.5618 124.974V123.631C19.5618 123.5 19.6574 123.402 19.7857 123.402H21.099C21.2273 123.402 21.3229 123.5 21.3229 123.631V124.974ZM21.3229 121.861C21.3229 121.992 21.2273 122.09 21.099 122.09H19.7857C19.6574 122.09 19.5618 121.992 19.5618 121.861V120.518C19.5618 120.386 19.6574 120.289 19.7857 120.289H21.099C21.2273 120.289 21.3229 120.386 21.3229 120.518V121.861ZM24.2047 131.23C24.2047 131.361 24.1092 131.459 23.9808 131.459H22.6675C22.5392 131.459 22.4437 131.361 22.4437 131.23V126.741C22.4437 126.61 22.5392 126.512 22.6675 126.512H23.9808C24.1092 126.512 24.2047 126.61 24.2047 126.741V131.23ZM24.2047 124.974C24.2047 125.105 24.1092 125.203 23.9808 125.203H22.6675C22.5392 125.203 22.4437 125.105 22.4437 124.974V123.631C22.4437 123.5 22.5392 123.402 22.6675 123.402H23.9808C24.1092 123.402 24.2047 123.5 24.2047 123.631V124.974ZM24.2047 121.861C24.2047 121.992 24.1092 122.09 23.9808 122.09H22.6675C22.5392 122.09 22.4437 121.992 22.4437 121.861V120.518C22.4437 120.386 22.5392 120.289 22.6675 120.289H23.9808C24.1092 120.289 24.2047 120.386 24.2047 120.518V121.861Z" fill="black"/>
</svg>
