<svg width="202" height="32" viewBox="0 0 202 32" fill="none" xmlns="http://www.w3.org/2000/svg">
<path d="M0 3C0 1.34315 1.34315 0 3 0L191.265 0C193.687 0 195.11 2.72163 193.729 4.71097L187.079 14.289C186.365 15.3178 186.365 16.6822 187.079 17.711L193.729 27.289C195.11 29.2784 193.687 32 191.265 32L3 32C1.34315 32 0 30.6569 0 29L0 3Z" fill="#FFC415"/>
<path d="M20.692 7.6L17.944 16H15.856L14.008 10.312L12.1 16H10.024L7.264 7.6H9.28L11.176 13.504L13.156 7.6H14.956L16.876 13.552L18.832 7.6H20.692ZM21.7773 7.6H23.7213V16H21.7773V7.6ZM31.0668 16L29.4468 13.66H29.3508H27.6588V16H25.7148V7.6H29.3508C30.0948 7.6 30.7388 7.724 31.2828 7.972C31.8348 8.22 32.2588 8.572 32.5548 9.028C32.8508 9.484 32.9988 10.024 32.9988 10.648C32.9988 11.272 32.8468 11.812 32.5428 12.268C32.2468 12.716 31.8228 13.06 31.2708 13.3L33.1548 16H31.0668ZM31.0308 10.648C31.0308 10.176 30.8788 9.816 30.5748 9.568C30.2708 9.312 29.8268 9.184 29.2428 9.184H27.6588V12.112H29.2428C29.8268 12.112 30.2708 11.984 30.5748 11.728C30.8788 11.472 31.0308 11.112 31.0308 10.648ZM41.043 14.44V16H34.539V7.6H40.887V9.16H36.471V10.984H40.371V12.496H36.471V14.44H41.043ZM51.3402 16L49.7202 13.66H49.6242H47.9322V16H45.9882V7.6H49.6242C50.3682 7.6 51.0122 7.724 51.5562 7.972C52.1082 8.22 52.5322 8.572 52.8282 9.028C53.1242 9.484 53.2722 10.024 53.2722 10.648C53.2722 11.272 53.1202 11.812 52.8162 12.268C52.5202 12.716 52.0962 13.06 51.5442 13.3L53.4282 16H51.3402ZM51.3042 10.648C51.3042 10.176 51.1522 9.816 50.8482 9.568C50.5442 9.312 50.1002 9.184 49.5162 9.184H47.9322V12.112H49.5162C50.1002 12.112 50.5442 11.984 50.8482 11.728C51.1522 11.472 51.3042 11.112 51.3042 10.648ZM58.8804 16.144C58.0084 16.144 57.2204 15.956 56.5164 15.58C55.8204 15.204 55.2724 14.688 54.8724 14.032C54.4804 13.368 54.2844 12.624 54.2844 11.8C54.2844 10.976 54.4804 10.236 54.8724 9.58C55.2724 8.916 55.8204 8.396 56.5164 8.02C57.2204 7.644 58.0084 7.456 58.8804 7.456C59.7524 7.456 60.5364 7.644 61.2324 8.02C61.9284 8.396 62.4764 8.916 62.8764 9.58C63.2764 10.236 63.4764 10.976 63.4764 11.8C63.4764 12.624 63.2764 13.368 62.8764 14.032C62.4764 14.688 61.9284 15.204 61.2324 15.58C60.5364 15.956 59.7524 16.144 58.8804 16.144ZM58.8804 14.488C59.3764 14.488 59.8244 14.376 60.2244 14.152C60.6244 13.92 60.9364 13.6 61.1604 13.192C61.3924 12.784 61.5084 12.32 61.5084 11.8C61.5084 11.28 61.3924 10.816 61.1604 10.408C60.9364 10 60.6244 9.684 60.2244 9.46C59.8244 9.228 59.3764 9.112 58.8804 9.112C58.3844 9.112 57.9364 9.228 57.5364 9.46C57.1364 9.684 56.8204 10 56.5884 10.408C56.3644 10.816 56.2524 11.28 56.2524 11.8C56.2524 12.32 56.3644 12.784 56.5884 13.192C56.8204 13.6 57.1364 13.92 57.5364 14.152C57.9364 14.376 58.3844 14.488 58.8804 14.488ZM68.5734 7.6C69.3174 7.6 69.9614 7.724 70.5054 7.972C71.0574 8.22 71.4814 8.572 71.7774 9.028C72.0734 9.484 72.2214 10.024 72.2214 10.648C72.2214 11.264 72.0734 11.804 71.7774 12.268C71.4814 12.724 71.0574 13.076 70.5054 13.324C69.9614 13.564 69.3174 13.684 68.5734 13.684H66.8814V16H64.9374V7.6H68.5734ZM68.4654 12.1C69.0494 12.1 69.4934 11.976 69.7974 11.728C70.1014 11.472 70.2534 11.112 70.2534 10.648C70.2534 10.176 70.1014 9.816 69.7974 9.568C69.4934 9.312 69.0494 9.184 68.4654 9.184H66.8814V12.1H68.4654ZM80.1133 14.44V16H73.6093V7.6H79.9573V9.16H75.5413V10.984H79.4413V12.496H75.5413V14.44H80.1133ZM13.528 25.2H9.628L8.884 27H6.892L10.636 18.6H12.556L16.312 27H14.272L13.528 25.2ZM12.916 23.724L11.584 20.508L10.252 23.724H12.916ZM19.9435 27.144C19.2795 27.144 18.6355 27.056 18.0115 26.88C17.3955 26.696 16.8995 26.46 16.5235 26.172L17.1835 24.708C17.5435 24.972 17.9715 25.184 18.4675 25.344C18.9635 25.504 19.4595 25.584 19.9555 25.584C20.5075 25.584 20.9155 25.504 21.1795 25.344C21.4435 25.176 21.5755 24.956 21.5755 24.684C21.5755 24.484 21.4955 24.32 21.3355 24.192C21.1835 24.056 20.9835 23.948 20.7355 23.868C20.4955 23.788 20.1675 23.7 19.7515 23.604C19.1115 23.452 18.5875 23.3 18.1795 23.148C17.7715 22.996 17.4195 22.752 17.1235 22.416C16.8355 22.08 16.6915 21.632 16.6915 21.072C16.6915 20.584 16.8235 20.144 17.0875 19.752C17.3515 19.352 17.7475 19.036 18.2755 18.804C18.8115 18.572 19.4635 18.456 20.2315 18.456C20.7675 18.456 21.2915 18.52 21.8035 18.648C22.3155 18.776 22.7635 18.96 23.1475 19.2L22.5475 20.676C21.7715 20.236 20.9955 20.016 20.2195 20.016C19.6755 20.016 19.2715 20.104 19.0075 20.28C18.7515 20.456 18.6235 20.688 18.6235 20.976C18.6235 21.264 18.7715 21.48 19.0675 21.624C19.3715 21.76 19.8315 21.896 20.4475 22.032C21.0875 22.184 21.6115 22.336 22.0195 22.488C22.4275 22.64 22.7755 22.88 23.0635 23.208C23.3595 23.536 23.5075 23.98 23.5075 24.54C23.5075 25.02 23.3715 25.46 23.0995 25.86C22.8355 26.252 22.4355 26.564 21.8995 26.796C21.3635 27.028 20.7115 27.144 19.9435 27.144ZM27.5958 27.144C26.9318 27.144 26.2878 27.056 25.6638 26.88C25.0478 26.696 24.5518 26.46 24.1758 26.172L24.8358 24.708C25.1958 24.972 25.6238 25.184 26.1198 25.344C26.6158 25.504 27.1118 25.584 27.6078 25.584C28.1598 25.584 28.5678 25.504 28.8318 25.344C29.0958 25.176 29.2278 24.956 29.2278 24.684C29.2278 24.484 29.1478 24.32 28.9878 24.192C28.8358 24.056 28.6358 23.948 28.3878 23.868C28.1478 23.788 27.8198 23.7 27.4038 23.604C26.7638 23.452 26.2398 23.3 25.8318 23.148C25.4238 22.996 25.0718 22.752 24.7758 22.416C24.4878 22.08 24.3438 21.632 24.3438 21.072C24.3438 20.584 24.4758 20.144 24.7398 19.752C25.0038 19.352 25.3998 19.036 25.9278 18.804C26.4638 18.572 27.1158 18.456 27.8838 18.456C28.4198 18.456 28.9438 18.52 29.4558 18.648C29.9678 18.776 30.4158 18.96 30.7998 19.2L30.1998 20.676C29.4238 20.236 28.6478 20.016 27.8718 20.016C27.3278 20.016 26.9238 20.104 26.6598 20.28C26.4038 20.456 26.2758 20.688 26.2758 20.976C26.2758 21.264 26.4238 21.48 26.7198 21.624C27.0238 21.76 27.4838 21.896 28.0998 22.032C28.7398 22.184 29.2638 22.336 29.6718 22.488C30.0798 22.64 30.4278 22.88 30.7158 23.208C31.0118 23.536 31.1598 23.98 31.1598 24.54C31.1598 25.02 31.0238 25.46 30.7518 25.86C30.4878 26.252 30.0878 26.564 29.5518 26.796C29.0158 27.028 28.3638 27.144 27.5958 27.144ZM38.9922 25.44V27H32.4882V18.6H38.8362V20.16H34.4202V21.984H38.3202V23.496H34.4202V25.44H38.9922ZM48.183 27L48.171 21.96L45.699 26.112H44.823L42.363 22.068V27H40.539V18.6H42.147L45.291 23.82L48.387 18.6H49.983L50.007 27H48.183ZM58.1679 22.632C58.6479 22.784 59.0239 23.04 59.2959 23.4C59.5679 23.752 59.7039 24.188 59.7039 24.708C59.7039 25.444 59.4159 26.012 58.8399 26.412C58.2719 26.804 57.4399 27 56.3439 27H51.9999V18.6H56.1039C57.1279 18.6 57.9119 18.796 58.4559 19.188C59.0079 19.58 59.2839 20.112 59.2839 20.784C59.2839 21.192 59.1839 21.556 58.9839 21.876C58.7919 22.196 58.5199 22.448 58.1679 22.632ZM53.9319 20.064V22.044H55.8639C56.3439 22.044 56.7079 21.96 56.9559 21.792C57.2039 21.624 57.3279 21.376 57.3279 21.048C57.3279 20.72 57.2039 20.476 56.9559 20.316C56.7079 20.148 56.3439 20.064 55.8639 20.064H53.9319ZM56.1999 25.536C56.7119 25.536 57.0959 25.452 57.3519 25.284C57.6159 25.116 57.7479 24.856 57.7479 24.504C57.7479 23.808 57.2319 23.46 56.1999 23.46H53.9319V25.536H56.1999ZM61.1757 18.6H63.1197V25.416H67.3317V27H61.1757V18.6ZM71.5827 24.024V27H69.6387V24L66.3867 18.6H68.4507L70.6947 22.332L72.9387 18.6H74.8467L71.5827 24.024ZM83.0785 27.144C82.2225 27.144 81.4465 26.96 80.7505 26.592C80.0625 26.216 79.5185 25.7 79.1185 25.044C78.7265 24.38 78.5305 23.632 78.5305 22.8C78.5305 21.968 78.7265 21.224 79.1185 20.568C79.5185 19.904 80.0625 19.388 80.7505 19.02C81.4465 18.644 82.2265 18.456 83.0905 18.456C83.8185 18.456 84.4745 18.584 85.0585 18.84C85.6505 19.096 86.1465 19.464 86.5465 19.944L85.2985 21.096C84.7305 20.44 84.0265 20.112 83.1865 20.112C82.6665 20.112 82.2025 20.228 81.7945 20.46C81.3865 20.684 81.0665 21 80.8345 21.408C80.6105 21.816 80.4985 22.28 80.4985 22.8C80.4985 23.32 80.6105 23.784 80.8345 24.192C81.0665 24.6 81.3865 24.92 81.7945 25.152C82.2025 25.376 82.6665 25.488 83.1865 25.488C84.0265 25.488 84.7305 25.156 85.2985 24.492L86.5465 25.644C86.1465 26.132 85.6505 26.504 85.0585 26.76C84.4665 27.016 83.8065 27.144 83.0785 27.144ZM91.7515 27.144C90.8795 27.144 90.0915 26.956 89.3875 26.58C88.6915 26.204 88.1435 25.688 87.7435 25.032C87.3515 24.368 87.1555 23.624 87.1555 22.8C87.1555 21.976 87.3515 21.236 87.7435 20.58C88.1435 19.916 88.6915 19.396 89.3875 19.02C90.0915 18.644 90.8795 18.456 91.7515 18.456C92.6235 18.456 93.4075 18.644 94.1035 19.02C94.7995 19.396 95.3475 19.916 95.7475 20.58C96.1475 21.236 96.3475 21.976 96.3475 22.8C96.3475 23.624 96.1475 24.368 95.7475 25.032C95.3475 25.688 94.7995 26.204 94.1035 26.58C93.4075 26.956 92.6235 27.144 91.7515 27.144ZM91.7515 25.488C92.2475 25.488 92.6955 25.376 93.0955 25.152C93.4955 24.92 93.8075 24.6 94.0315 24.192C94.2635 23.784 94.3795 23.32 94.3795 22.8C94.3795 22.28 94.2635 21.816 94.0315 21.408C93.8075 21 93.4955 20.684 93.0955 20.46C92.6955 20.228 92.2475 20.112 91.7515 20.112C91.2555 20.112 90.8075 20.228 90.4075 20.46C90.0075 20.684 89.6915 21 89.4595 21.408C89.2355 21.816 89.1235 22.28 89.1235 22.8C89.1235 23.32 89.2355 23.784 89.4595 24.192C89.6915 24.6 90.0075 24.92 90.4075 25.152C90.8075 25.376 91.2555 25.488 91.7515 25.488ZM105.513 18.6V27H103.917L99.7285 21.9V27H97.8085V18.6H99.4165L103.592 23.7V18.6H105.513ZM109.444 20.16V22.38H113.332V23.94H109.444V27H107.5V18.6H113.848V20.16H109.444ZM115.164 18.6H117.108V27H115.164V18.6ZM124.777 22.668H126.553V26.076C126.097 26.42 125.569 26.684 124.969 26.868C124.369 27.052 123.765 27.144 123.157 27.144C122.285 27.144 121.501 26.96 120.805 26.592C120.109 26.216 119.561 25.7 119.161 25.044C118.769 24.38 118.573 23.632 118.573 22.8C118.573 21.968 118.769 21.224 119.161 20.568C119.561 19.904 120.113 19.388 120.817 19.02C121.521 18.644 122.313 18.456 123.193 18.456C123.929 18.456 124.597 18.58 125.197 18.828C125.797 19.076 126.301 19.436 126.709 19.908L125.461 21.06C124.861 20.428 124.137 20.112 123.289 20.112C122.753 20.112 122.277 20.224 121.861 20.448C121.445 20.672 121.121 20.988 120.889 21.396C120.657 21.804 120.541 22.272 120.541 22.8C120.541 23.32 120.657 23.784 120.889 24.192C121.121 24.6 121.441 24.92 121.849 25.152C122.265 25.376 122.737 25.488 123.265 25.488C123.825 25.488 124.329 25.368 124.777 25.128V22.668ZM132.091 27.144C130.891 27.144 129.955 26.812 129.283 26.148C128.619 25.484 128.287 24.536 128.287 23.304V18.6H130.231V23.232C130.231 24.736 130.855 25.488 132.103 25.488C132.711 25.488 133.175 25.308 133.495 24.948C133.815 24.58 133.975 24.008 133.975 23.232V18.6H135.895V23.304C135.895 24.536 135.559 25.484 134.887 26.148C134.223 26.812 133.291 27.144 132.091 27.144ZM143.168 27L141.548 24.66H141.452H139.76V27H137.816V18.6H141.452C142.196 18.6 142.84 18.724 143.384 18.972C143.936 19.22 144.36 19.572 144.656 20.028C144.952 20.484 145.1 21.024 145.1 21.648C145.1 22.272 144.948 22.812 144.644 23.268C144.348 23.716 143.924 24.06 143.372 24.3L145.256 27H143.168ZM143.132 21.648C143.132 21.176 142.98 20.816 142.676 20.568C142.372 20.312 141.928 20.184 141.344 20.184H139.76V23.112H141.344C141.928 23.112 142.372 22.984 142.676 22.728C142.98 22.472 143.132 22.112 143.132 21.648ZM152.173 25.2H148.273L147.529 27H145.537L149.281 18.6H151.201L154.957 27H152.917L152.173 25.2ZM151.561 23.724L150.229 20.508L148.897 23.724H151.561ZM157.146 20.184H154.458V18.6H161.778V20.184H159.09V27H157.146V20.184ZM166.775 27.144C165.903 27.144 165.115 26.956 164.411 26.58C163.715 26.204 163.167 25.688 162.767 25.032C162.375 24.368 162.179 23.624 162.179 22.8C162.179 21.976 162.375 21.236 162.767 20.58C163.167 19.916 163.715 19.396 164.411 19.02C165.115 18.644 165.903 18.456 166.775 18.456C167.647 18.456 168.431 18.644 169.127 19.02C169.823 19.396 170.371 19.916 170.771 20.58C171.171 21.236 171.371 21.976 171.371 22.8C171.371 23.624 171.171 24.368 170.771 25.032C170.371 25.688 169.823 26.204 169.127 26.58C168.431 26.956 167.647 27.144 166.775 27.144ZM166.775 25.488C167.271 25.488 167.719 25.376 168.119 25.152C168.519 24.92 168.831 24.6 169.055 24.192C169.287 23.784 169.403 23.32 169.403 22.8C169.403 22.28 169.287 21.816 169.055 21.408C168.831 21 168.519 20.684 168.119 20.46C167.719 20.228 167.271 20.112 166.775 20.112C166.279 20.112 165.831 20.228 165.431 20.46C165.031 20.684 164.715 21 164.483 21.408C164.259 21.816 164.147 22.28 164.147 22.8C164.147 23.32 164.259 23.784 164.483 24.192C164.715 24.6 165.031 24.92 165.431 25.152C165.831 25.376 166.279 25.488 166.775 25.488ZM178.184 27L176.564 24.66H176.468H174.776V27H172.832V18.6H176.468C177.212 18.6 177.856 18.724 178.4 18.972C178.952 19.22 179.376 19.572 179.672 20.028C179.968 20.484 180.116 21.024 180.116 21.648C180.116 22.272 179.964 22.812 179.66 23.268C179.364 23.716 178.94 24.06 178.388 24.3L180.272 27H178.184ZM178.148 21.648C178.148 21.176 177.996 20.816 177.692 20.568C177.388 20.312 176.944 20.184 176.36 20.184H174.776V23.112H176.36C176.944 23.112 177.388 22.984 177.692 22.728C177.996 22.472 178.148 22.112 178.148 21.648Z" fill="black"/>
<path d="M90.152 14.8107C89.031 15.3303 87.7371 15.3477 86.6016 14.8599C85.4835 14.3794 84.6216 13.4458 84.2359 12.3002C84.0796 11.8356 84 11.35 84 10.8572C84 10.2472 84.1201 9.65447 84.3568 9.09578C84.8084 8.0298 85.6565 7.2106 86.7464 6.79014C87.842 6.36751 89.0824 6.40803 90.1484 6.90231L95.8742 9.55532C96.9836 10.0691 96.9836 11.646 95.8742 12.1598L90.152 14.8107Z" stroke="black" stroke-miterlimit="10" stroke-linecap="round" stroke-linejoin="round"/>
<path d="M85.8242 10.8579C85.8242 11.159 85.8734 11.4484 85.9646 11.7191C86.4357 13.1201 88.0445 13.778 89.3855 13.157L94.347 10.8579L89.3818 8.55733C88.1132 7.9697 86.5812 8.5197 86.0363 9.80712C85.8995 10.1299 85.8242 10.4852 85.8242 10.8579Z" stroke="black" stroke-miterlimit="10" stroke-linecap="round" stroke-linejoin="round"/>
<path d="M96.5448 10.8574H94.3477" stroke="black" stroke-miterlimit="10" stroke-linecap="round" stroke-linejoin="round"/>
<path d="M95.875 12.1426H99.9551" stroke="black" stroke-miterlimit="10" stroke-linecap="round" stroke-linejoin="round"/>
<path d="M95.875 9.57227H99.9551" stroke="black" stroke-miterlimit="10" stroke-linecap="round" stroke-linejoin="round"/>
<path d="M106.113 12.1406H176.999" stroke="black" stroke-miterlimit="10" stroke-linecap="round" stroke-linejoin="round"/>
<path d="M106.113 9.57227H176.999" stroke="black" stroke-miterlimit="10" stroke-linecap="round" stroke-linejoin="round"/>
<path d="M99.9453 10.8555C99.9453 12.2551 100.071 13.3898 100.225 13.3898H105.835C105.989 13.3898 106.115 12.2551 106.115 10.8555" stroke="black" stroke-miterlimit="10" stroke-linecap="round" stroke-linejoin="round"/>
<path d="M99.9453 10.8566C99.9453 9.457 100.071 8.32227 100.225 8.32227H105.835C105.989 8.32227 106.115 9.457 106.115 10.8566" stroke="black" stroke-miterlimit="10" stroke-linecap="round" stroke-linejoin="round"/>
</svg>
