<svg width="101" height="50" viewBox="0 0 101 50" fill="none" xmlns="http://www.w3.org/2000/svg">
<path d="M85.0364 0H9.55187C4.28555 0 0 4.28554 0 9.55186V40.4481C0 45.7144 4.28555 50 9.55187 50H85.0364C90.3027 50 94.5883 45.7144 94.5883 40.4481V9.55186C94.5922 4.28554 90.3086 0 85.0364 0ZM83.4684 46.5091H11.1238C6.9158 46.5091 3.49473 43.0881 3.49473 38.8801V11.1258C3.49473 6.91774 6.9158 3.49666 11.1238 3.49666H83.4645C87.6725 3.49666 91.0936 6.91774 91.0936 11.1258V38.8801H91.0974C91.0974 43.0881 87.6764 46.5091 83.4684 46.5091Z" fill="black"/>
<path d="M83.4683 46.5092H11.1237C6.9157 46.5092 3.49463 43.0881 3.49463 38.8801V11.1258C3.49463 6.91778 6.9157 3.4967 11.1237 3.4967H83.4644C87.6724 3.4967 91.0935 6.91778 91.0935 11.1258V38.8801H91.0973C91.0973 43.0881 87.6763 46.5092 83.4683 46.5092Z" fill="white"/>
<path d="M55.7721 33.8812C55.588 33.0729 55.3069 31.9332 54.8747 30.5706C54.6576 29.8864 54.3998 29.1518 54.0839 28.3745C53.9307 27.9907 53.7544 27.5973 53.5663 27.196C52.3103 28.5877 50.6492 29.1401 50.0503 29.303C50.0794 29.3844 50.1104 29.4658 50.1356 29.5472C50.3624 30.2353 50.5407 30.9021 50.6957 31.5204C50.9981 32.7686 51.1823 33.8269 51.2985 34.5654C51.3121 34.6429 51.3237 34.7147 51.3334 34.7883H51.3373C51.3373 35.1721 52.3762 35.6644 53.6536 35.6644C54.9309 35.6644 55.9698 35.174 55.964 34.7922C55.964 34.7631 55.9601 34.736 55.9466 34.7069C55.9039 34.4917 55.8477 34.2146 55.7721 33.8812Z" fill="white"/>
<path d="M47.4841 25.1202C47.8678 24.7054 48.7323 23.6587 49.2052 22.172C49.2401 22.0693 47.8853 21.7999 47.7399 21.7786C46.0361 21.5402 44.1851 22.2147 42.9601 23.4067C41.4986 24.8256 40.5431 26.7464 39.8162 28.6265C39.1591 30.3361 38.6338 32.0902 38.2307 33.8773C38.1531 34.2146 38.0989 34.4918 38.0562 34.7011C38.0427 34.7302 38.0349 34.7573 38.0349 34.7864C38.0349 35.1702 39.068 35.6625 40.3512 35.6625C41.6285 35.6625 42.6674 35.1721 42.6674 34.7864C42.681 34.7186 42.6887 34.641 42.7023 34.5635C42.8167 33.825 43.0008 32.7609 43.3051 31.5185C43.4582 30.8982 43.6385 30.2334 43.8653 29.5453C44.092 28.8572 44.3557 28.1536 44.6852 27.4771C44.848 27.1399 45.0263 26.8104 45.224 26.5022C45.412 26.1959 46.5149 24.496 47.4841 25.1202Z" fill="white"/>
<path d="M38.227 16.8961C38.4111 17.7044 38.6922 18.8441 39.1244 20.2067C39.3415 20.8909 39.5993 21.6255 39.9152 22.4028C40.2312 23.18 40.6033 23.996 41.0821 24.8373C41.086 24.8411 41.0898 24.8508 41.0957 24.8586C41.4756 24.2267 42.5261 22.6974 44.1078 21.9143C44.0225 21.6837 43.9411 21.4491 43.8635 21.2224C43.6368 20.5381 43.4526 19.8733 43.3034 19.2492C43.001 18.0009 42.8169 16.9426 42.7006 16.2041C42.687 16.1227 42.6792 16.0413 42.6657 15.9696C42.6657 15.5858 41.6268 15.0935 40.3494 15.0935C39.0721 15.0935 38.0332 15.5839 38.0293 15.9774C38.0293 16.0026 38.037 16.0278 38.0467 16.0549C38.0913 16.2681 38.1495 16.5511 38.227 16.8961Z" fill="white"/>
<path d="M24.9282 32.2918C24.9631 33.6583 26.2269 34.7612 27.7949 34.7902H34.6507V31.501H30.4C29.6867 31.4874 29.1149 30.9893 29.0975 30.3651V26.5506H34.6507V23.4668H29.0975V19.0921H34.6507V15.9695H24.9282V32.2918V32.2918Z" fill="white"/>
<path d="M16.4232 30.3651V15.9695H12.2539V32.2879C12.2888 33.6544 13.5526 34.7573 15.1206 34.7863H22.2167V31.501H17.7276C17.0124 31.4893 16.4406 30.9892 16.4232 30.3651Z" fill="white"/>
<path d="M53.6536 15.0935C52.3763 15.0935 51.3374 15.5839 51.3374 15.9696V15.9735C51.3296 16.0452 51.3161 16.1227 51.3025 16.2041C51.1862 16.9426 51.004 18.0067 50.6997 19.2492C50.5466 19.8694 50.3663 20.5343 50.1395 21.2224C49.9127 21.9066 49.6491 22.614 49.3196 23.2905C49.1568 23.6278 48.9785 23.9573 48.7808 24.2635C48.4823 24.7423 48.1237 25.2385 47.6488 25.5583C47.4957 25.6649 47.3154 25.7424 47.1313 25.7812C47.0925 25.789 46.9859 25.8103 46.9859 25.8103C46.6021 26.3569 46.0071 27.7505 46.2726 29.0065C47.1274 29.1092 48.1528 29.0278 48.8874 28.7507C49.8701 28.3824 50.4593 27.9598 51.0738 27.3241C52.386 25.9692 53.359 24.3159 54.0432 22.5695C54.4115 21.6294 54.7391 20.668 55.0298 19.7027C55.2256 19.0534 55.4058 18.4002 55.5687 17.7412C55.7063 17.1946 55.8381 16.5744 55.9486 16.0452C55.9563 16.02 55.966 15.9948 55.966 15.9677C55.9679 15.5839 54.9348 15.0935 53.6536 15.0935Z" fill="white"/>
<path d="M67.8788 17.2972C67.0066 16.1691 65.8959 15.6051 64.2309 15.6051C62.2965 15.6051 60.8467 16.456 59.8911 18.152C58.9336 19.848 58.4548 22.4065 58.4548 25.8237C58.4548 29.0529 58.8987 31.4157 59.7826 32.9101C60.6703 34.4103 62.06 35.1566 63.9557 35.1566C65.6982 35.1566 66.8554 34.5286 67.7353 33.2687C68.6153 32.0127 69.0766 30.1151 69.1154 27.5837H65.7021V27.8434C65.7021 29.1983 65.5955 30.2023 65.3726 30.8594C65.138 31.7394 64.7155 32.1871 64.1243 32.1871C63.4537 32.1871 62.9885 31.7394 62.7443 30.8497C62.5175 30.0259 62.407 28.2815 62.407 25.5136C62.407 22.5015 62.5136 20.635 62.7365 19.8151C62.9497 19.0281 63.3684 18.4912 64.1767 18.4447C65.0566 18.3885 65.3222 19.5805 65.4075 19.9604C65.5315 20.4896 65.6168 21.3793 65.6672 22.643H69.1832V22.2166C69.1852 20.0651 68.7491 18.4253 67.8788 17.2972Z" fill="white"/>
<path d="M77.4093 15.6149C75.4575 15.6149 74.0386 16.3805 73.1625 17.904C72.2864 19.4333 71.8464 21.924 71.8464 25.3761C71.8464 28.8185 72.2864 31.3092 73.1664 32.8385C74.0464 34.3717 75.4691 35.1373 77.4345 35.1373C79.3224 35.1373 80.6986 34.3678 81.5572 32.821C82.4159 31.2782 82.8481 28.7971 82.8481 25.3761C82.8481 21.9666 82.412 19.4895 81.5456 17.9389C80.6811 16.3882 79.3011 15.6149 77.4093 15.6149ZM78.3319 30.2586C78.1052 31.1599 77.6962 31.6174 77.1147 31.6174C76.4731 31.6174 76.0293 31.1812 75.7947 30.3323C75.5776 29.5414 75.471 27.8629 75.471 25.2016C75.471 22.3058 75.5738 20.511 75.787 19.7202C76.0176 18.8654 76.4576 18.4351 77.0895 18.4351C77.7 18.4351 78.1187 18.9138 78.3416 19.8655C78.5471 20.7455 78.644 22.6586 78.644 25.7133C78.644 27.9055 78.5374 29.4348 78.3319 30.2586Z" fill="white"/>
<path d="M77.0894 18.4349C76.4575 18.4349 76.0175 18.8672 75.7869 19.72C75.5737 20.5108 75.4709 22.3038 75.4709 25.2015C75.4709 27.8628 75.5776 29.5413 75.7946 30.3321C76.0292 31.183 76.473 31.6172 77.1146 31.6172C77.6961 31.6172 78.1051 31.1598 78.3319 30.2585C78.5373 29.4347 78.6439 27.9054 78.6439 25.7132C78.6439 22.6585 78.5451 20.7454 78.3415 19.8654C78.1186 18.9137 77.7 18.4349 77.0894 18.4349Z" fill="black"/>
<path d="M83.4703 5.35352H11.1257C7.94306 5.35352 5.35352 7.94306 5.35352 11.1257V38.8762C5.35352 42.0588 7.94306 44.6484 11.1257 44.6484H83.4664C86.6491 44.6484 89.2328 42.0588 89.2328 38.8762V11.1199C89.2386 7.94306 86.6491 5.35352 83.4703 5.35352ZM22.2166 34.7864H15.1205C13.5525 34.7573 12.2887 33.6544 12.2538 32.2879V15.9695H16.4231V30.3651C16.4405 30.9893 17.0123 31.4893 17.7256 31.501H22.2147V34.7864H22.2166ZM34.6507 19.0921H29.0975V23.4668H34.6507V26.5506H29.0975V30.3651C29.1149 30.9893 29.6867 31.4893 30.4 31.501H34.6507V34.7902H27.795C26.2269 34.7612 24.9631 33.6583 24.9283 32.2918V15.9695H34.6507V19.0921ZM40.3493 15.0934C41.6266 15.0934 42.6655 15.5838 42.6655 15.9695C42.6791 16.0412 42.6868 16.1226 42.7004 16.204C42.8147 16.9425 42.9989 18.0028 43.3032 19.2491C43.4524 19.8732 43.6366 20.54 43.8634 21.2223C43.9409 21.449 44.0223 21.6836 44.1076 21.9142C42.5279 22.6953 41.4754 24.2247 41.0955 24.8585C41.0916 24.8507 41.0877 24.841 41.0819 24.8372C40.6032 23.9959 40.231 23.1799 39.9151 22.4027C39.5991 21.6254 39.3433 20.8908 39.1243 20.2066C38.692 18.844 38.411 17.7023 38.2268 16.896C38.1493 16.549 38.0892 16.268 38.0466 16.0548C38.0388 16.0296 38.0291 16.0044 38.0291 15.9773C38.0349 15.5838 39.0719 15.0934 40.3493 15.0934ZM45.2202 26.5041C45.0244 26.8123 44.8441 27.1398 44.6813 27.479C44.3518 28.1536 44.0882 28.8591 43.8614 29.5472C43.6346 30.2353 43.4563 30.902 43.3013 31.5204C42.9989 32.7628 42.8147 33.8269 42.6985 34.5654C42.6849 34.6429 42.6771 34.7185 42.6636 34.7883C42.6636 35.1721 41.6246 35.6644 40.3473 35.6644C39.0661 35.6644 38.0311 35.174 38.0311 34.7883C38.0311 34.7592 38.0388 34.7321 38.0524 34.703C38.095 34.4937 38.1512 34.2165 38.2268 33.8793C38.6281 32.0941 39.1533 30.338 39.8123 28.6284C40.5392 26.7483 41.4948 24.8255 42.9562 23.4086C44.1832 22.2166 46.0323 21.5421 47.7361 21.7805C47.8814 21.8018 49.2363 22.0712 49.2014 22.174C48.7265 23.6606 47.864 24.7073 47.4802 25.1221C46.5149 24.496 45.412 26.1959 45.2202 26.5041ZM53.6536 35.6625C52.3763 35.6625 51.3374 35.1721 51.3374 34.7864H51.3335C51.3258 34.7147 51.3122 34.641 51.2986 34.5635C51.1843 33.825 51.0001 32.7647 50.6958 31.5184C50.5427 30.8982 50.3624 30.2333 50.1356 29.5452C50.1105 29.4638 50.0794 29.3824 50.0504 29.301C50.6493 29.1382 52.3104 28.5877 53.5664 27.1941C53.7544 27.5953 53.9289 27.9888 54.0839 28.3726C54.3999 29.1498 54.6557 29.8844 54.8748 30.5687C55.307 31.9313 55.588 33.0729 55.7722 33.8793C55.8497 34.2126 55.904 34.4898 55.9466 34.703C55.9602 34.7321 55.9641 34.7592 55.9641 34.7883C55.9679 35.1721 54.931 35.6625 53.6536 35.6625ZM55.9505 16.047C55.84 16.5762 55.7063 17.1964 55.5706 17.743C55.4078 18.4001 55.2295 19.0552 55.0318 19.7046C54.741 20.6698 54.4115 21.6312 54.0452 22.5713C53.361 24.3177 52.3879 25.971 51.0757 27.3259C50.4613 27.9617 49.8701 28.3861 48.8893 28.7525C48.1547 29.0297 47.1294 29.1111 46.2746 29.0083C46.009 27.7523 46.6041 26.3606 46.9879 25.8121C46.9879 25.8121 47.0945 25.7908 47.1332 25.783C47.3174 25.7443 47.4957 25.6667 47.6508 25.5601C48.1256 25.2403 48.4842 24.7441 48.7827 24.2654C48.9785 23.9572 49.1588 23.6296 49.3216 23.2923C49.6511 22.6178 49.9147 21.9084 50.1415 21.2242C50.3682 20.5361 50.5466 19.8693 50.7016 19.251C51.004 18.0086 51.1881 16.9445 51.3044 16.206C51.318 16.1246 51.3296 16.047 51.3393 15.9753V15.9714C51.3393 15.5877 52.3782 15.0953 53.6556 15.0953C54.9368 15.0953 55.9718 15.5857 55.9718 15.9714C55.9679 15.9947 55.9602 16.0199 55.9505 16.047ZM69.1851 22.6469H65.6691C65.6187 21.3831 65.5314 20.4935 65.4093 19.9643C65.324 19.5844 65.0585 18.3924 64.1785 18.4486C63.3703 18.4951 62.9516 19.0339 62.7384 19.8189C62.5155 20.6388 62.4089 22.5054 62.4089 25.5175C62.4089 28.2854 62.5193 30.0279 62.7461 30.8536C62.9904 31.7413 63.4555 32.191 64.1262 32.191C64.7154 32.191 65.138 31.7433 65.3744 30.8633C65.5973 30.2062 65.704 29.2022 65.704 27.8473V27.5876H69.1173C69.0785 30.1209 68.6172 32.0185 67.7372 33.2726C66.8572 34.5325 65.7001 35.1605 63.9576 35.1605C62.06 35.1605 60.6722 34.4123 59.7844 32.914C58.9006 31.4196 58.4567 29.0568 58.4567 25.8276C58.4567 22.4104 58.9355 19.8519 59.893 18.1559C60.8505 16.4599 62.2984 15.609 64.2328 15.609C65.8997 15.609 67.0104 16.173 67.8806 17.3011C68.7529 18.4292 69.1871 20.069 69.1871 22.2224V22.6469H69.1948H69.1851ZM81.5572 32.8209C80.6985 34.3677 79.3223 35.1372 77.4345 35.1372C75.469 35.1372 74.0463 34.3716 73.1664 32.8384C72.2864 31.3091 71.8464 28.8184 71.8464 25.376C71.8464 21.9239 72.2864 19.4332 73.1625 17.9039C74.0386 16.3785 75.4574 15.6148 77.4093 15.6148C79.301 15.6148 80.6811 16.3882 81.5436 17.9388C82.41 19.4894 82.8461 21.9666 82.8461 25.376C82.8461 28.7971 82.4158 31.28 81.5572 32.8209Z" fill="black"/>
<path d="M97.579 4.87285C96.2358 4.87285 95.1426 3.77965 95.1426 2.43642C95.1426 1.09319 96.2358 0 97.579 0C98.9222 0 100.015 1.09319 100.015 2.43642C100.015 3.77965 98.9222 4.87285 97.579 4.87285ZM97.579 0.312064C96.4083 0.312064 95.4546 1.2657 95.4546 2.43642C95.4546 3.60715 96.4083 4.56078 97.579 4.56078C98.7497 4.56078 99.7034 3.60715 99.7034 2.43642C99.7034 1.2657 98.7517 0.312064 97.579 0.312064Z" fill="black"/>
<path d="M97.6294 2.78923H97.1293V3.61106H96.6738V1.26379H97.8174C98.3272 1.26379 98.6218 1.65533 98.6218 2.02748C98.6218 2.33567 98.4415 2.62835 98.1082 2.74077L98.6916 3.60912H98.1624L97.6294 2.78923ZM97.1313 2.38606H97.7883C98.0268 2.38606 98.1779 2.22131 98.1779 2.02748C98.1779 1.83947 98.0229 1.67471 97.8058 1.67471H97.1313V2.38606Z" fill="black"/>
</svg>
