<svg width="51" height="51" viewBox="0 0 51 51" fill="none" xmlns="http://www.w3.org/2000/svg">
<path d="M45.9492 0H5C2.23858 0 0 2.23857 0 4.99999V45.9492C0 48.7106 2.23857 50.9492 4.99999 50.9492H45.9492C48.7106 50.9492 50.9492 48.7106 50.9492 45.9492V5C50.9492 2.23858 48.7106 0 45.9492 0Z" fill="white"/>
<path d="M40.0906 12.9174C39.8453 11.8066 38.8413 11 37.7034 11H13.2966C12.1587 11 11.1547 11.8066 10.9094 12.9174L9 21.5655V21.6412C9 23.3085 9.88384 24.7736 11.2072 25.593V37.3592C11.2072 38.7009 12.2989 39.7926 13.6406 39.7926H37.443C38.7847 39.7926 39.8764 38.7009 39.8764 37.3592V25.5388C41.1536 24.7099 42 23.2727 42 21.6412V21.5655L40.0906 12.9174ZM16.9036 21.5982V21.6412C16.9036 23.4383 15.4417 24.9002 13.6446 24.9002C11.8474 24.9002 10.4245 23.4773 10.3863 21.7136L12.2623 13.216C12.3682 12.735 12.8037 12.3855 13.2966 12.3855H18.0415L16.9044 21.5982H16.9036ZM24.8073 21.6412C24.8073 23.4383 23.3453 24.9002 21.5482 24.9002C19.751 24.9002 18.3114 23.4606 18.2891 21.6818L19.4365 12.3855H24.8065V21.6412H24.8073ZM26.1927 21.6412V12.3855H31.5627L32.7101 21.6818C32.6886 23.4598 31.2346 24.9002 29.451 24.9002C27.6674 24.9002 26.1919 23.4383 26.1919 21.6412H26.1927ZM32.4011 36.5685C30.2528 36.5685 28.5154 34.8311 28.5154 32.6828C28.5154 30.5345 30.2528 28.7971 32.4011 28.7971C33.4506 28.7971 34.3273 29.1801 35.0049 29.8131L33.9499 30.8291C33.6608 30.5512 33.156 30.2296 32.4011 30.2296C31.0746 30.2296 29.9917 31.3284 29.9917 32.6836C29.9917 34.0388 31.0746 35.1377 32.4011 35.1377C33.9387 35.1377 34.516 34.0333 34.6052 33.4608H32.4011V32.1286H36.0711C36.1045 32.3229 36.1324 32.5172 36.1324 32.7728C36.1324 34.9936 34.6442 36.5701 32.4019 36.5701L32.4011 36.5685ZM37.3554 24.8994C35.5583 24.8994 34.0964 23.4375 34.0964 21.6404V21.5974L32.9593 12.3847H37.7042C38.1971 12.3847 38.6318 12.7342 38.7385 13.2152L40.6145 21.712C40.5763 23.4757 39.1295 24.8986 37.3562 24.8986L37.3554 24.8994Z" fill="#164454"/>
</svg>
