<svg width="51" height="51" viewBox="0 0 51 51" fill="none" xmlns="http://www.w3.org/2000/svg">
<path d="M45.9492 0H5C2.23858 0 0 2.23857 0 4.99999V45.9492C0 48.7106 2.23857 50.9492 4.99999 50.9492H45.9492C48.7106 50.9492 50.9492 48.7106 50.9492 45.9492V5C50.9492 2.23858 48.7106 0 45.9492 0Z" fill="white"/>
<path d="M39.737 16.6284C38.6701 17.1019 37.5372 17.4136 36.3744 17.5514C37.5972 16.8202 38.5142 15.6693 38.9518 14.3087C37.801 14.992 36.5422 15.4715 35.2295 15.7293C33.0177 13.3736 29.3074 13.2597 26.9518 15.4715C25.7769 16.5744 25.1056 18.1209 25.1056 19.7333C25.1056 20.1828 25.1596 20.6324 25.2555 21.0699C20.5502 20.8422 16.1685 18.6304 13.1835 14.986C11.643 17.6533 12.4283 21.0579 14.9817 22.7782C14.0526 22.7483 13.1416 22.4965 12.3264 22.047V22.1249C12.3264 24.9121 14.2924 27.3097 17.0257 27.8612C16.1625 28.0949 15.2574 28.1249 14.3823 27.9631C15.1495 30.3487 17.3434 31.985 19.8489 32.027C17.7749 33.6514 15.2155 34.5265 12.5841 34.5205C12.1166 34.5205 11.649 34.4905 11.1875 34.4366C13.8668 36.1629 16.9897 37.08 20.1785 37.068C30.9678 37.068 36.8359 28.1489 36.8359 20.4166C36.8359 20.1588 36.8359 19.9071 36.8359 19.6553C37.9748 18.8282 38.9578 17.8032 39.737 16.6284Z" fill="#164454"/>
</svg>
