<svg width="147" height="73" viewBox="0 0 147 73" fill="none" xmlns="http://www.w3.org/2000/svg">
<path d="M124.153 0H13.9457C6.2569 0 0 6.2569 0 13.9457V59.0543C0 66.7431 6.2569 73 13.9457 73H124.153C131.842 73 138.099 66.7431 138.099 59.0543V13.9457C138.105 6.2569 131.85 0 124.153 0ZM121.864 67.9034H16.2408C10.0971 67.9034 5.1023 62.9086 5.1023 56.7649V16.2436C5.1023 10.0999 10.0971 5.10513 16.2408 5.10513H121.858C128.002 5.10513 132.997 10.0999 132.997 16.2436V56.7649H133.002C133.002 62.9086 128.007 67.9034 121.864 67.9034Z" fill="black"/>
<path d="M121.864 67.9034H16.2405C10.0968 67.9034 5.10205 62.9087 5.10205 56.765V16.2437C5.10205 10.1 10.0968 5.10522 16.2405 5.10522H121.858C128.002 5.10522 132.996 10.1 132.996 16.2437V56.765H133.002C133.002 62.9087 128.007 67.9034 121.864 67.9034Z" fill="white"/>
<path d="M81.4273 49.4665C81.1585 48.2864 80.7482 46.6224 80.1171 44.633C79.8001 43.6341 79.4238 42.5615 78.9625 41.4268C78.7389 40.8664 78.4814 40.292 78.2069 39.7062C76.3731 41.738 73.9479 42.5446 73.0735 42.7823C73.1159 42.9011 73.1612 43.02 73.198 43.1388C73.5291 44.1435 73.7894 45.1169 74.0158 46.0197C74.4573 47.8421 74.7261 49.3873 74.8959 50.4654C74.9157 50.5786 74.9327 50.6833 74.9469 50.7909H74.9525C74.9525 51.3512 76.4694 52.07 78.3343 52.07C80.1992 52.07 81.716 51.354 81.7075 50.7965C81.7075 50.7541 81.7018 50.7145 81.682 50.672C81.6198 50.3579 81.5377 49.9532 81.4273 49.4665Z" fill="white"/>
<path d="M69.3267 36.6754C69.8871 36.0698 71.1492 34.5417 71.8397 32.3712C71.8906 32.2212 69.9125 31.8278 69.7003 31.7967C67.2128 31.4486 64.5103 32.4334 62.7218 34.1738C60.588 36.2453 59.1929 39.0497 58.1317 41.7947C57.1723 44.2907 56.4054 46.8517 55.8168 49.4609C55.7036 49.9533 55.6244 50.358 55.5621 50.6636C55.5423 50.706 55.531 50.7457 55.531 50.7881C55.531 51.3484 57.0393 52.0672 58.9127 52.0672C60.7776 52.0672 62.2945 51.3513 62.2945 50.7881C62.3143 50.6891 62.3256 50.5759 62.3454 50.4627C62.5124 49.3845 62.7812 47.8309 63.2255 46.0169C63.4491 45.1113 63.7122 44.1407 64.0433 43.1361C64.3744 42.1315 64.7593 41.1042 65.2404 40.1166C65.4781 39.6242 65.7384 39.1431 66.0271 38.6931C66.3016 38.246 67.9118 35.7642 69.3267 36.6754Z" fill="white"/>
<path d="M55.8114 24.6683C56.0802 25.8484 56.4905 27.5123 57.1216 29.5018C57.4385 30.5007 57.8149 31.5732 58.2762 32.708C58.7375 33.8428 59.2808 35.0342 59.9798 36.2624C59.9855 36.268 59.9911 36.2822 59.9996 36.2935C60.5543 35.371 62.0881 33.1382 64.3973 31.9949C64.2727 31.6581 64.1539 31.3157 64.0407 30.9846C63.7096 29.9857 63.4408 29.015 63.2228 28.1038C62.7814 26.2813 62.5125 24.7362 62.3427 23.658C62.3229 23.5392 62.3116 23.4203 62.2918 23.3156C62.2918 22.7553 60.775 22.0365 58.9101 22.0365C57.0452 22.0365 55.5284 22.7525 55.5227 23.3269C55.5227 23.3637 55.534 23.4005 55.5482 23.4401C55.6133 23.7514 55.6982 24.1646 55.8114 24.6683Z" fill="white"/>
<path d="M36.3953 47.146C36.4462 49.1411 38.2913 50.7513 40.5807 50.7937H50.59V45.9914H44.3841C43.3427 45.9716 42.5078 45.2443 42.4824 44.3331V38.7638H50.59V34.2615H42.4824V27.8744H50.59V23.3154H36.3953V47.146V47.146Z" fill="white"/>
<path d="M23.9777 44.3331V23.3154H17.8906V47.1403C17.9416 49.1354 19.7867 50.7456 22.076 50.7881H32.4363V45.9914H25.8823C24.838 45.9744 24.0032 45.2443 23.9777 44.3331Z" fill="white"/>
<path d="M78.3344 22.0365C76.4695 22.0365 74.9527 22.7525 74.9527 23.3156V23.3213C74.9414 23.426 74.9216 23.5392 74.9017 23.658C74.732 24.7362 74.4659 26.2898 74.0217 28.1038C73.7981 29.0094 73.5349 29.98 73.2038 30.9846C72.8727 31.9836 72.4879 33.0165 72.0068 34.0041C71.7691 34.4965 71.5087 34.9776 71.2201 35.4247C70.7843 36.1237 70.2607 36.8482 69.5674 37.3151C69.3438 37.4707 69.0807 37.5839 68.8118 37.6405C68.7552 37.6519 68.5996 37.683 68.5996 37.683C68.0393 38.481 67.1705 40.5157 67.5582 42.3495C68.8062 42.4995 70.3032 42.3806 71.3757 41.9759C72.8105 41.4383 73.6707 40.8213 74.5678 39.8931C76.4837 37.915 77.9043 35.5011 78.9032 32.9514C79.4409 31.5789 79.9192 30.1753 80.3436 28.766C80.6295 27.818 80.8926 26.8643 81.1303 25.9021C81.3313 25.1041 81.5237 24.1985 81.685 23.426C81.6963 23.3892 81.7105 23.3524 81.7105 23.3128C81.7133 22.7525 80.205 22.0365 78.3344 22.0365Z" fill="white"/>
<path d="M99.103 25.2539C97.8295 23.6069 96.208 22.7834 93.7771 22.7834C90.9529 22.7834 88.8361 24.0258 87.4409 26.5019C86.043 28.9781 85.344 32.7136 85.344 37.7027C85.344 42.4173 85.992 45.8669 87.2825 48.0488C88.5786 50.2391 90.6076 51.3286 93.3752 51.3286C95.9193 51.3286 97.6088 50.4117 98.8935 48.5723C100.178 46.7385 100.852 43.968 100.908 40.2722H95.925V40.6514C95.925 42.6295 95.7693 44.0954 95.4439 45.0547C95.1015 46.3395 94.4846 46.9932 93.6214 46.9932C92.6423 46.9932 91.9631 46.3395 91.6066 45.0406C91.2755 43.8379 91.1142 41.291 91.1142 37.2499C91.1142 32.8522 91.2698 30.127 91.5952 28.93C91.9065 27.781 92.5178 26.9972 93.6979 26.9292C94.9826 26.8472 95.3703 28.5876 95.4948 29.1422C95.676 29.9148 95.8005 31.2137 95.874 33.0588H101.007V32.4362C101.01 29.295 100.374 26.9009 99.103 25.2539Z" fill="white"/>
<path d="M113.018 22.7977C110.168 22.7977 108.096 23.9155 106.817 26.1398C105.538 28.3726 104.896 32.009 104.896 37.0491C104.896 42.075 105.538 45.7114 106.823 47.9442C108.108 50.1826 110.185 51.3004 113.054 51.3004C115.811 51.3004 117.82 50.177 119.074 47.9187C120.327 45.6661 120.958 42.0439 120.958 37.0491C120.958 32.0713 120.322 28.4547 119.057 26.1908C117.794 23.9269 115.78 22.7977 113.018 22.7977ZM114.365 44.1776C114.033 45.4935 113.436 46.1614 112.587 46.1614C111.651 46.1614 111.003 45.5246 110.66 44.2851C110.343 43.1305 110.188 40.6798 110.188 36.7944C110.188 32.5665 110.338 29.9461 110.649 28.7915C110.986 27.5435 111.628 26.9152 112.551 26.9152C113.442 26.9152 114.053 27.6142 114.379 29.0037C114.679 30.2885 114.82 33.0816 114.82 37.5415C114.82 40.7421 114.665 42.9749 114.365 44.1776Z" fill="white"/>
<path d="M112.55 26.915C111.628 26.915 110.986 27.5461 110.649 28.7913C110.337 29.9459 110.188 32.5635 110.188 36.7942C110.188 40.6797 110.343 43.1303 110.66 44.2849C111.003 45.5273 111.651 46.1612 112.587 46.1612C113.436 46.1612 114.033 45.4933 114.364 44.1774C114.664 42.9747 114.82 40.7419 114.82 37.5413C114.82 33.0814 114.676 30.2883 114.379 29.0035C114.053 27.614 113.442 26.915 112.55 26.915Z" fill="black"/>
<path d="M121.867 7.81616H16.2436C11.5969 7.81616 7.81616 11.5969 7.81616 16.2436V56.7592C7.81616 61.4059 11.5969 65.1866 16.2436 65.1866H121.861C126.508 65.1866 130.28 61.4059 130.28 56.7592V16.2351C130.288 11.5969 126.508 7.81616 121.867 7.81616ZM32.4363 50.7881H22.076C19.7866 50.7457 17.9415 49.1355 17.8906 47.1404V23.3155H23.9777V44.3331C24.0032 45.2444 24.838 45.9745 25.8794 45.9915H32.4334V50.7881H32.4363ZM50.59 27.8745H42.4824V34.2615H50.59V38.7639H42.4824V44.3331C42.5079 45.2444 43.3427 45.9745 44.3841 45.9915H50.59V50.7938H40.5807C38.2913 50.7513 36.4462 49.1411 36.3953 47.146V23.3155H50.59V27.8745ZM58.9099 22.0364C60.7748 22.0364 62.2917 22.7523 62.2917 23.3155C62.3115 23.4202 62.3228 23.5391 62.3426 23.6579C62.5096 24.7361 62.7784 26.2841 63.2227 28.1037C63.4406 29.0149 63.7094 29.9884 64.0405 30.9845C64.1537 31.3156 64.2726 31.658 64.3971 31.9948C62.0907 33.1352 60.5541 35.368 59.9994 36.2934C59.9938 36.2821 59.9881 36.2679 59.9796 36.2623C59.2807 35.0341 58.7373 33.8427 58.276 32.7079C57.8148 31.5731 57.4412 30.5006 57.1214 29.5016C56.4904 27.5122 56.08 25.8454 55.8112 24.6682C55.698 24.1616 55.6103 23.7513 55.548 23.44C55.5367 23.4032 55.5226 23.3664 55.5226 23.3268C55.531 22.7524 57.045 22.0364 58.9099 22.0364ZM66.0215 38.696C65.7356 39.1459 65.4725 39.6242 65.2347 40.1194C64.7537 41.1042 64.3688 42.1343 64.0377 43.1389C63.7066 44.1435 63.4463 45.117 63.2199 46.0198C62.7784 47.8337 62.5096 49.3873 62.3398 50.4655C62.32 50.5787 62.3086 50.6891 62.2888 50.791C62.2888 51.3513 60.772 52.0701 58.9071 52.0701C57.0365 52.0701 55.5254 51.3541 55.5254 50.791C55.5254 50.7485 55.5367 50.7089 55.5565 50.6664C55.6188 50.3608 55.7008 49.9561 55.8112 49.4637C56.397 46.8574 57.1639 44.2935 58.1261 41.7975C59.1873 39.0525 60.5824 36.2453 62.7161 34.1766C64.5075 32.4363 67.2072 31.4515 69.6947 31.7995C69.9069 31.8307 71.885 32.224 71.8341 32.374C71.1407 34.5445 69.8814 36.0727 69.3211 36.6783C67.9118 35.7642 66.3016 38.246 66.0215 38.696ZM78.3343 52.0672C76.4694 52.0672 74.9526 51.3513 74.9526 50.7881H74.947C74.9356 50.6834 74.9158 50.5759 74.896 50.4627C74.7291 49.3845 74.4602 47.8365 74.0159 46.0169C73.7924 45.1114 73.5292 44.1407 73.1981 43.1361C73.1613 43.0172 73.116 42.8984 73.0736 42.7795C73.948 42.5418 76.3732 41.7381 78.207 39.7034C78.4815 40.2892 78.7362 40.8637 78.9626 41.424C79.4238 42.5588 79.7974 43.6313 80.1172 44.6303C80.7482 46.6197 81.1586 48.2865 81.4274 49.4637C81.5406 49.9505 81.6199 50.3552 81.6821 50.6664C81.7019 50.7089 81.7076 50.7485 81.7076 50.791C81.7132 51.3513 80.1992 52.0672 78.3343 52.0672ZM81.6878 23.4287C81.5265 24.2013 81.3312 25.1068 81.1331 25.9049C80.8954 26.8642 80.635 27.8207 80.3464 28.7687C79.9219 30.178 79.4408 31.5816 78.906 32.9541C77.907 35.5039 76.4864 37.9178 74.5706 39.8959C73.6735 40.8241 72.8104 41.4438 71.3785 41.9787C70.3059 42.3833 68.8089 42.5022 67.5609 42.3522C67.1732 40.5184 68.042 38.4866 68.6023 37.6857C68.6023 37.6857 68.758 37.6546 68.8146 37.6433C69.0834 37.5867 69.3438 37.4735 69.5702 37.3178C70.2635 36.8509 70.787 36.1264 71.2228 35.4274C71.5086 34.9775 71.7718 34.4992 72.0095 34.0068C72.4906 33.022 72.8755 31.9863 73.2066 30.9873C73.5377 29.9827 73.798 29.0092 74.0244 28.1065C74.4659 26.2925 74.7347 24.7389 74.9045 23.6607C74.9243 23.5419 74.9413 23.4287 74.9554 23.324V23.3183C74.9554 22.758 76.4723 22.0392 78.3372 22.0392C80.2077 22.0392 81.7189 22.7552 81.7189 23.3183C81.7132 23.3523 81.7019 23.3891 81.6878 23.4287ZM101.01 33.0645H95.8769C95.8033 31.2194 95.6759 29.9205 95.4977 29.1479C95.3731 28.5933 94.9854 26.8529 93.7007 26.9349C92.5206 27.0029 91.9093 27.7896 91.5981 28.9357C91.2726 30.1327 91.117 32.8579 91.117 37.2556C91.117 41.2967 91.2783 43.8407 91.6094 45.0463C91.9659 46.3424 92.6451 46.9989 93.6243 46.9989C94.4846 46.9989 95.1015 46.3452 95.4467 45.0604C95.7722 44.1011 95.9278 42.6352 95.9278 40.6571V40.2779H100.911C100.855 43.9766 100.181 46.747 98.8964 48.578C97.6116 50.4174 95.9221 51.3343 93.3781 51.3343C90.6076 51.3343 88.5814 50.242 87.2853 48.0544C85.9949 45.8726 85.3468 42.423 85.3468 37.7083C85.3468 32.7192 86.0458 28.9838 87.4438 26.5076C88.8417 24.0315 90.9557 22.7891 93.7799 22.7891C96.2136 22.7891 97.8352 23.6126 99.1058 25.2596C100.379 26.9066 101.013 29.3007 101.013 32.4447V33.0645H101.024H101.01ZM119.074 47.9186C117.82 50.1769 115.811 51.3003 113.054 51.3003C110.185 51.3003 108.108 50.1825 106.823 47.9441C105.538 45.7113 104.896 42.0749 104.896 37.049C104.896 32.0089 105.538 28.3725 106.817 26.1397C108.096 23.9126 110.168 22.7976 113.018 22.7976C115.78 22.7976 117.794 23.9268 119.054 26.1907C120.319 28.4546 120.955 32.0712 120.955 37.049C120.955 42.0437 120.327 45.6688 119.074 47.9186Z" fill="black"/>
<path d="M142.465 7.11436C140.504 7.11436 138.908 5.51829 138.908 3.55718C138.908 1.59606 140.504 0 142.465 0C144.427 0 146.023 1.59606 146.023 3.55718C146.023 5.51829 144.427 7.11436 142.465 7.11436ZM142.465 0.455613C140.756 0.455613 139.364 1.84792 139.364 3.55718C139.364 5.26643 140.756 6.65874 142.465 6.65874C144.175 6.65874 145.567 5.26643 145.567 3.55718C145.567 1.84792 144.177 0.455613 142.465 0.455613Z" fill="black"/>
<path d="M142.539 4.07222H141.809V5.2721H141.144V1.84509H142.813C143.558 1.84509 143.988 2.41673 143.988 2.96007C143.988 3.41003 143.725 3.83734 143.238 4.00148L144.09 5.26927H143.317L142.539 4.07222ZM141.812 3.4836H142.771C143.119 3.4836 143.34 3.24306 143.34 2.96007C143.34 2.68557 143.113 2.44503 142.796 2.44503H141.812V3.4836Z" fill="black"/>
</svg>
