<svg width="51" height="51" viewBox="0 0 51 51" fill="none" xmlns="http://www.w3.org/2000/svg">
<path d="M45.9492 0H5C2.23858 0 0 2.23857 0 4.99999V45.9492C0 48.7106 2.23857 50.9492 4.99999 50.9492H45.9492C48.7106 50.9492 50.9492 48.7106 50.9492 45.9492V5C50.9492 2.23858 48.7106 0 45.9492 0Z" fill="white"/>
<path d="M38.1621 11.2109H12.7835C11.9143 11.2109 11.207 11.9182 11.207 12.7874V38.1661C11.207 39.0352 11.9143 39.7425 12.7835 39.7425H26.4438V28.6955H22.7275V24.3858H26.4438V21.215C26.4438 17.5286 28.6976 15.5206 31.9823 15.5206C33.0912 15.5206 34.2061 15.5746 35.309 15.6885V19.5426H33.0253C31.2271 19.5426 30.8914 20.3938 30.8914 21.6405V24.3858H35.1591L34.6017 28.6955H30.8914V39.7425H38.1621C39.0313 39.7425 39.7386 39.0352 39.7386 38.1661V12.7874C39.7386 11.9182 39.0313 11.2109 38.1621 11.2109Z" fill="#164454"/>
</svg>
