<svg width="51" height="52" viewBox="0 0 51 52" fill="none" xmlns="http://www.w3.org/2000/svg">
<path d="M45.9492 0.546875H5C2.23858 0.546875 0 2.78545 0 5.54687V46.4961C0 49.2575 2.23857 51.4961 4.99999 51.4961H45.9492C48.7106 51.4961 50.9492 49.2575 50.9492 46.4961V5.54688C50.9492 2.78545 48.7106 0.546875 45.9492 0.546875Z" fill="white"/>
<path d="M39.7347 31.7165C39.7287 33.9643 37.9065 35.7865 35.6587 35.7925H15.2791C13.0313 35.7865 11.2091 33.9643 11.2031 31.7165V20.3279C11.2091 18.0801 13.0313 16.2579 15.2791 16.252H35.6587C37.9065 16.2579 39.7287 18.0801 39.7347 20.3279V31.7165ZM22.5198 29.5107L30.2341 25.5187L22.5198 21.5267V29.5107Z" fill="#164454"/>
</svg>
