<svg width="51" height="52" viewBox="0 0 51 52" fill="none" xmlns="http://www.w3.org/2000/svg">
<path d="M45.9492 0.546875H5C2.23858 0.546875 0 2.78545 0 5.54687V46.4961C0 49.2575 2.23857 51.4961 4.99999 51.4961H45.9492C48.7106 51.4961 50.9492 49.2575 50.9492 46.4961V5.54688C50.9492 2.78545 48.7106 0.546875 45.9492 0.546875Z" fill="white"/>
<path d="M11.573 21.144H17.4891V40.169H11.573V21.144ZM14.534 11.6914C16.4282 11.6914 17.9626 13.2259 17.9626 15.12C17.9626 17.0141 16.4282 18.5486 14.534 18.5486C12.6399 18.5486 11.1055 17.0141 11.1055 15.12C11.1055 13.2259 12.6399 11.6914 14.534 11.6914Z" fill="#164454"/>
<path d="M21.1982 21.1451H26.8626V23.7465H26.9705C28.1273 21.7685 30.2732 20.5936 32.5629 20.6776C38.5569 20.6776 39.6538 24.6156 39.6538 29.7345V40.1701H33.7437V30.9213C33.7437 28.7155 33.7078 25.8744 30.6748 25.8744C27.6418 25.8744 27.1263 28.272 27.1263 30.7595V40.1701H21.2222L21.1982 21.1451Z" fill="#164454"/>
</svg>
