<svg width="243" height="65" viewBox="0 0 243 65" fill="none" xmlns="http://www.w3.org/2000/svg">
<path d="M0 3C0 1.34315 1.34315 0 3 0L237.982 0C240.251 0 241.699 2.42145 240.625 4.42007L230.06 24.0799C229.584 24.9667 229.584 26.0333 230.06 26.9201L240.625 46.5799C241.699 48.5785 240.251 51 237.982 51L3 51C1.34314 51 0 49.6569 0 48L0 3Z" fill="#FFC415"/>
<path d="M21.833 7.9L18.856 17H16.594L14.592 10.838L12.525 17H10.276L7.286 7.9H9.47L11.524 14.296L13.669 7.9H15.619L17.699 14.348L19.818 7.9H21.833ZM23.0087 7.9H25.1147V17H23.0087V7.9ZM33.0723 17L31.3173 14.465H31.2133H29.3803V17H27.2743V7.9H31.2133C32.0193 7.9 32.717 8.03433 33.3063 8.303C33.9043 8.57167 34.3636 8.953 34.6843 9.447C35.005 9.941 35.1653 10.526 35.1653 11.202C35.1653 11.878 35.0006 12.463 34.6713 12.957C34.3506 13.4423 33.8913 13.815 33.2933 14.075L35.3343 17H33.0723ZM33.0333 11.202C33.0333 10.6907 32.8686 10.3007 32.5393 10.032C32.21 9.75467 31.729 9.616 31.0963 9.616H29.3803V12.788H31.0963C31.729 12.788 32.21 12.6493 32.5393 12.372C32.8686 12.0947 33.0333 11.7047 33.0333 11.202ZM43.8799 15.31V17H36.8339V7.9H43.7109V9.59H38.9269V11.566H43.1519V13.204H38.9269V15.31H43.8799ZM55.0352 17L53.2802 14.465H53.1762H51.3432V17H49.2372V7.9H53.1762C53.9822 7.9 54.6799 8.03433 55.2692 8.303C55.8672 8.57167 56.3265 8.953 56.6472 9.447C56.9679 9.941 57.1282 10.526 57.1282 11.202C57.1282 11.878 56.9635 12.463 56.6342 12.957C56.3135 13.4423 55.8542 13.815 55.2562 14.075L57.2972 17H55.0352ZM54.9962 11.202C54.9962 10.6907 54.8315 10.3007 54.5022 10.032C54.1729 9.75467 53.6919 9.616 53.0592 9.616H51.3432V12.788H53.0592C53.6919 12.788 54.1729 12.6493 54.5022 12.372C54.8315 12.0947 54.9962 11.7047 54.9962 11.202ZM63.2038 17.156C62.2591 17.156 61.4054 16.9523 60.6428 16.545C59.8888 16.1377 59.2951 15.5787 58.8618 14.868C58.4371 14.1487 58.2248 13.3427 58.2248 12.45C58.2248 11.5573 58.4371 10.7557 58.8618 10.045C59.2951 9.32567 59.8888 8.76233 60.6428 8.355C61.4054 7.94767 62.2591 7.744 63.2038 7.744C64.1484 7.744 64.9978 7.94767 65.7518 8.355C66.5058 8.76233 67.0994 9.32567 67.5328 10.045C67.9661 10.7557 68.1828 11.5573 68.1828 12.45C68.1828 13.3427 67.9661 14.1487 67.5328 14.868C67.0994 15.5787 66.5058 16.1377 65.7518 16.545C64.9978 16.9523 64.1484 17.156 63.2038 17.156ZM63.2038 15.362C63.7411 15.362 64.2264 15.2407 64.6598 14.998C65.0931 14.7467 65.4311 14.4 65.6738 13.958C65.9251 13.516 66.0508 13.0133 66.0508 12.45C66.0508 11.8867 65.9251 11.384 65.6738 10.942C65.4311 10.5 65.0931 10.1577 64.6598 9.915C64.2264 9.66367 63.7411 9.538 63.2038 9.538C62.6664 9.538 62.1811 9.66367 61.7478 9.915C61.3144 10.1577 60.9721 10.5 60.7208 10.942C60.4781 11.384 60.3568 11.8867 60.3568 12.45C60.3568 13.0133 60.4781 13.516 60.7208 13.958C60.9721 14.4 61.3144 14.7467 61.7478 14.998C62.1811 15.2407 62.6664 15.362 63.2038 15.362ZM73.7045 7.9C74.5105 7.9 75.2082 8.03433 75.7975 8.303C76.3955 8.57167 76.8549 8.953 77.1755 9.447C77.4962 9.941 77.6565 10.526 77.6565 11.202C77.6565 11.8693 77.4962 12.4543 77.1755 12.957C76.8549 13.451 76.3955 13.8323 75.7975 14.101C75.2082 14.361 74.5105 14.491 73.7045 14.491H71.8715V17H69.7655V7.9H73.7045ZM73.5875 12.775C74.2202 12.775 74.7012 12.6407 75.0305 12.372C75.3599 12.0947 75.5245 11.7047 75.5245 11.202C75.5245 10.6907 75.3599 10.3007 75.0305 10.032C74.7012 9.75467 74.2202 9.616 73.5875 9.616H71.8715V12.775H73.5875ZM86.2061 15.31V17H79.1601V7.9H86.0371V9.59H81.2531V11.566H85.4781V13.204H81.2531V15.31H86.2061ZM14.072 28.05H9.847L9.041 30H6.883L10.939 20.9H13.019L17.088 30H14.878L14.072 28.05ZM13.409 26.451L11.966 22.967L10.523 26.451H13.409ZM21.0221 30.156C20.3028 30.156 19.6051 30.0607 18.9291 29.87C18.2618 29.6707 17.7245 29.415 17.3171 29.103L18.0321 27.517C18.4221 27.803 18.8858 28.0327 19.4231 28.206C19.9605 28.3793 20.4978 28.466 21.0351 28.466C21.6331 28.466 22.0751 28.3793 22.3611 28.206C22.6471 28.024 22.7901 27.7857 22.7901 27.491C22.7901 27.2743 22.7035 27.0967 22.5301 26.958C22.3655 26.8107 22.1488 26.6937 21.8801 26.607C21.6201 26.5203 21.2648 26.425 20.8141 26.321C20.1208 26.1563 19.5531 25.9917 19.1111 25.827C18.6691 25.6623 18.2878 25.398 17.9671 25.034C17.6551 24.67 17.4991 24.1847 17.4991 23.578C17.4991 23.0493 17.6421 22.5727 17.9281 22.148C18.2141 21.7147 18.6431 21.3723 19.2151 21.121C19.7958 20.8697 20.5021 20.744 21.3341 20.744C21.9148 20.744 22.4825 20.8133 23.0371 20.952C23.5918 21.0907 24.0771 21.29 24.4931 21.55L23.8431 23.149C23.0025 22.6723 22.1618 22.434 21.3211 22.434C20.7318 22.434 20.2941 22.5293 20.0081 22.72C19.7308 22.9107 19.5921 23.162 19.5921 23.474C19.5921 23.786 19.7525 24.02 20.0731 24.176C20.4025 24.3233 20.9008 24.4707 21.5681 24.618C22.2615 24.7827 22.8291 24.9473 23.2711 25.112C23.7131 25.2767 24.0901 25.5367 24.4021 25.892C24.7228 26.2473 24.8831 26.7283 24.8831 27.335C24.8831 27.855 24.7358 28.3317 24.4411 28.765C24.1551 29.1897 23.7218 29.5277 23.1411 29.779C22.5605 30.0303 21.8541 30.156 21.0221 30.156ZM29.3122 30.156C28.5928 30.156 27.8952 30.0607 27.2192 29.87C26.5518 29.6707 26.0145 29.415 25.6072 29.103L26.3222 27.517C26.7122 27.803 27.1758 28.0327 27.7132 28.206C28.2505 28.3793 28.7878 28.466 29.3252 28.466C29.9232 28.466 30.3652 28.3793 30.6512 28.206C30.9372 28.024 31.0802 27.7857 31.0802 27.491C31.0802 27.2743 30.9935 27.0967 30.8202 26.958C30.6555 26.8107 30.4388 26.6937 30.1702 26.607C29.9102 26.5203 29.5548 26.425 29.1042 26.321C28.4108 26.1563 27.8432 25.9917 27.4012 25.827C26.9592 25.6623 26.5778 25.398 26.2572 25.034C25.9452 24.67 25.7892 24.1847 25.7892 23.578C25.7892 23.0493 25.9322 22.5727 26.2182 22.148C26.5042 21.7147 26.9332 21.3723 27.5052 21.121C28.0858 20.8697 28.7922 20.744 29.6242 20.744C30.2048 20.744 30.7725 20.8133 31.3272 20.952C31.8818 21.0907 32.3672 21.29 32.7832 21.55L32.1332 23.149C31.2925 22.6723 30.4518 22.434 29.6112 22.434C29.0218 22.434 28.5842 22.5293 28.2982 22.72C28.0208 22.9107 27.8822 23.162 27.8822 23.474C27.8822 23.786 28.0425 24.02 28.3632 24.176C28.6925 24.3233 29.1908 24.4707 29.8582 24.618C30.5515 24.7827 31.1192 24.9473 31.5612 25.112C32.0032 25.2767 32.3802 25.5367 32.6922 25.892C33.0128 26.2473 33.1732 26.7283 33.1732 27.335C33.1732 27.855 33.0258 28.3317 32.7312 28.765C32.4452 29.1897 32.0118 29.5277 31.4312 29.779C30.8505 30.0303 30.1442 30.156 29.3122 30.156ZM41.6582 28.31V30H34.6122V20.9H41.4892V22.59H36.7052V24.566H40.9302V26.204H36.7052V28.31H41.6582ZM51.6149 30L51.6019 24.54L48.9239 29.038H47.9749L45.3099 24.657V30H43.3339V20.9H45.0759L48.4819 26.555L51.8359 20.9H53.5649L53.5909 30H51.6149ZM62.4319 25.268C62.9519 25.4327 63.3592 25.71 63.6539 26.1C63.9486 26.4813 64.0959 26.9537 64.0959 27.517C64.0959 28.3143 63.7839 28.9297 63.1599 29.363C62.5446 29.7877 61.6432 30 60.4559 30H55.7499V20.9H60.1959C61.3052 20.9 62.1546 21.1123 62.7439 21.537C63.3419 21.9617 63.6409 22.538 63.6409 23.266C63.6409 23.708 63.5326 24.1023 63.3159 24.449C63.1079 24.7957 62.8132 25.0687 62.4319 25.268ZM57.8429 22.486V24.631H59.9359C60.4559 24.631 60.8502 24.54 61.1189 24.358C61.3876 24.176 61.5219 23.9073 61.5219 23.552C61.5219 23.1967 61.3876 22.9323 61.1189 22.759C60.8502 22.577 60.4559 22.486 59.9359 22.486H57.8429ZM60.2999 28.414C60.8546 28.414 61.2706 28.323 61.5479 28.141C61.8339 27.959 61.9769 27.6773 61.9769 27.296C61.9769 26.542 61.4179 26.165 60.2999 26.165H57.8429V28.414H60.2999ZM65.6903 20.9H67.7963V28.284H72.3593V30H65.6903V20.9ZM76.9646 26.776V30H74.8586V26.75L71.3356 20.9H73.5716L76.0026 24.943L78.4336 20.9H80.5006L76.9646 26.776ZM12.434 43.156C11.5067 43.156 10.666 42.9567 9.912 42.558C9.16667 42.1507 8.57733 41.5917 8.144 40.881C7.71933 40.1617 7.507 39.3513 7.507 38.45C7.507 37.5487 7.71933 36.7427 8.144 36.032C8.57733 35.3127 9.16667 34.7537 9.912 34.355C10.666 33.9477 11.511 33.744 12.447 33.744C13.2357 33.744 13.9463 33.8827 14.579 34.16C15.2203 34.4373 15.7577 34.836 16.191 35.356L14.839 36.604C14.2237 35.8933 13.461 35.538 12.551 35.538C11.9877 35.538 11.485 35.6637 11.043 35.915C10.601 36.1577 10.2543 36.5 10.003 36.942C9.76033 37.384 9.639 37.8867 9.639 38.45C9.639 39.0133 9.76033 39.516 10.003 39.958C10.2543 40.4 10.601 40.7467 11.043 40.998C11.485 41.2407 11.9877 41.362 12.551 41.362C13.461 41.362 14.2237 41.0023 14.839 40.283L16.191 41.531C15.7577 42.0597 15.2203 42.4627 14.579 42.74C13.9377 43.0173 13.2227 43.156 12.434 43.156ZM21.8298 43.156C20.8851 43.156 20.0314 42.9523 19.2688 42.545C18.5148 42.1377 17.9211 41.5787 17.4878 40.868C17.0631 40.1487 16.8508 39.3427 16.8508 38.45C16.8508 37.5573 17.0631 36.7557 17.4878 36.045C17.9211 35.3257 18.5148 34.7623 19.2688 34.355C20.0314 33.9477 20.8851 33.744 21.8298 33.744C22.7744 33.744 23.6238 33.9477 24.3778 34.355C25.1318 34.7623 25.7254 35.3257 26.1588 36.045C26.5921 36.7557 26.8088 37.5573 26.8088 38.45C26.8088 39.3427 26.5921 40.1487 26.1588 40.868C25.7254 41.5787 25.1318 42.1377 24.3778 42.545C23.6238 42.9523 22.7744 43.156 21.8298 43.156ZM21.8298 41.362C22.3671 41.362 22.8524 41.2407 23.2858 40.998C23.7191 40.7467 24.0571 40.4 24.2998 39.958C24.5511 39.516 24.6768 39.0133 24.6768 38.45C24.6768 37.8867 24.5511 37.384 24.2998 36.942C24.0571 36.5 23.7191 36.1577 23.2858 35.915C22.8524 35.6637 22.3671 35.538 21.8298 35.538C21.2924 35.538 20.8071 35.6637 20.3738 35.915C19.9404 36.1577 19.5981 36.5 19.3468 36.942C19.1041 37.384 18.9828 37.8867 18.9828 38.45C18.9828 39.0133 19.1041 39.516 19.3468 39.958C19.5981 40.4 19.9404 40.7467 20.3738 40.998C20.8071 41.2407 21.2924 41.362 21.8298 41.362ZM36.7375 33.9V43H35.0085L30.4715 37.475V43H28.3915V33.9H30.1335L34.6575 39.425V33.9H36.7375ZM40.9965 35.59V37.995H45.2085V39.685H40.9965V43H38.8905V33.9H45.7675V35.59H40.9965ZM47.1933 33.9H49.2993V43H47.1933V33.9ZM57.6079 38.307H59.5319V41.999C59.0379 42.3717 58.4659 42.6577 57.8159 42.857C57.1659 43.0563 56.5115 43.156 55.8529 43.156C54.9082 43.156 54.0589 42.9567 53.3049 42.558C52.5509 42.1507 51.9572 41.5917 51.5239 40.881C51.0992 40.1617 50.8869 39.3513 50.8869 38.45C50.8869 37.5487 51.0992 36.7427 51.5239 36.032C51.9572 35.3127 52.5552 34.7537 53.3179 34.355C54.0805 33.9477 54.9385 33.744 55.8919 33.744C56.6892 33.744 57.4129 33.8783 58.0629 34.147C58.7129 34.4157 59.2589 34.8057 59.7009 35.317L58.3489 36.565C57.6989 35.8803 56.9145 35.538 55.9959 35.538C55.4152 35.538 54.8995 35.6593 54.4489 35.902C53.9982 36.1447 53.6472 36.487 53.3959 36.929C53.1445 37.371 53.0189 37.878 53.0189 38.45C53.0189 39.0133 53.1445 39.516 53.3959 39.958C53.6472 40.4 53.9939 40.7467 54.4359 40.998C54.8865 41.2407 55.3979 41.362 55.9699 41.362C56.5765 41.362 57.1225 41.232 57.6079 40.972V38.307ZM65.5312 43.156C64.2312 43.156 63.2172 42.7963 62.4892 42.077C61.7698 41.3577 61.4102 40.3307 61.4102 38.996V33.9H63.5162V38.918C63.5162 40.5473 64.1922 41.362 65.5442 41.362C66.2028 41.362 66.7055 41.167 67.0522 40.777C67.3988 40.3783 67.5722 39.7587 67.5722 38.918V33.9H69.6522V38.996C69.6522 40.3307 69.2882 41.3577 68.5602 42.077C67.8408 42.7963 66.8312 43.156 65.5312 43.156ZM77.5313 43L75.7763 40.465H75.6723H73.8393V43H71.7333V33.9H75.6723C76.4783 33.9 77.176 34.0343 77.7653 34.303C78.3633 34.5717 78.8226 34.953 79.1433 35.447C79.464 35.941 79.6243 36.526 79.6243 37.202C79.6243 37.878 79.4596 38.463 79.1303 38.957C78.8096 39.4423 78.3503 39.815 77.7523 40.075L79.7933 43H77.5313ZM77.4923 37.202C77.4923 36.6907 77.3276 36.3007 76.9983 36.032C76.669 35.7547 76.188 35.616 75.5553 35.616H73.8393V38.788H75.5553C76.188 38.788 76.669 38.6493 76.9983 38.372C77.3276 38.0947 77.4923 37.7047 77.4923 37.202ZM87.2859 41.05H83.0609L82.2549 43H80.0969L84.1529 33.9H86.2329L90.3019 43H88.0919L87.2859 41.05ZM86.6229 39.451L85.1799 35.967L83.7369 39.451H86.6229ZM92.674 35.616H89.762V33.9H97.692V35.616H94.78V43H92.674V35.616ZM103.105 43.156C102.16 43.156 101.307 42.9523 100.544 42.545C99.7901 42.1377 99.1965 41.5787 98.7631 40.868C98.3385 40.1487 98.1261 39.3427 98.1261 38.45C98.1261 37.5573 98.3385 36.7557 98.7631 36.045C99.1965 35.3257 99.7901 34.7623 100.544 34.355C101.307 33.9477 102.16 33.744 103.105 33.744C104.05 33.744 104.899 33.9477 105.653 34.355C106.407 34.7623 107.001 35.3257 107.434 36.045C107.867 36.7557 108.084 37.5573 108.084 38.45C108.084 39.3427 107.867 40.1487 107.434 40.868C107.001 41.5787 106.407 42.1377 105.653 42.545C104.899 42.9523 104.05 43.156 103.105 43.156ZM103.105 41.362C103.642 41.362 104.128 41.2407 104.561 40.998C104.994 40.7467 105.332 40.4 105.575 39.958C105.826 39.516 105.952 39.0133 105.952 38.45C105.952 37.8867 105.826 37.384 105.575 36.942C105.332 36.5 104.994 36.1577 104.561 35.915C104.128 35.6637 103.642 35.538 103.105 35.538C102.568 35.538 102.082 35.6637 101.649 35.915C101.216 36.1577 100.873 36.5 100.622 36.942C100.379 37.384 100.258 37.8867 100.258 38.45C100.258 39.0133 100.379 39.516 100.622 39.958C100.873 40.4 101.216 40.7467 101.649 40.998C102.082 41.2407 102.568 41.362 103.105 41.362ZM115.465 43L113.71 40.465H113.606H111.773V43H109.667V33.9H113.606C114.412 33.9 115.11 34.0343 115.699 34.303C116.297 34.5717 116.756 34.953 117.077 35.447C117.398 35.941 117.558 36.526 117.558 37.202C117.558 37.878 117.393 38.463 117.064 38.957C116.743 39.4423 116.284 39.815 115.686 40.075L117.727 43H115.465ZM115.426 37.202C115.426 36.6907 115.261 36.3007 114.932 36.032C114.603 35.7547 114.122 35.616 113.489 35.616H111.773V38.788H113.489C114.122 38.788 114.603 38.6493 114.932 38.372C115.261 38.0947 115.426 37.7047 115.426 37.202Z" fill="black"/>
<path d="M130.466 28.3052C127.045 28.6135 123.645 27.4565 121.138 25.1344C118.669 22.8473 117.298 19.6214 117.372 16.287C117.403 14.9349 117.654 13.5994 118.12 12.3192C118.696 10.7344 119.571 9.30626 120.717 8.07479C122.906 5.72514 125.897 4.38501 129.144 4.30533C132.408 4.22538 135.613 5.48308 137.932 7.75749L150.394 19.9692C152.809 22.3347 151.318 26.4312 147.932 26.7352L130.466 28.3052Z" stroke="black" stroke-width="2.5" stroke-miterlimit="10" stroke-linecap="round" stroke-linejoin="round"/>
<path d="M122.888 14.0148C122.604 14.7969 122.459 15.5946 122.441 16.3824C122.349 20.4598 125.933 23.6633 130.026 23.2962L145.17 21.9332L134.364 11.3437C131.603 8.63852 127.078 8.64391 124.436 11.4821C123.773 12.1935 123.241 13.0466 122.888 14.0148Z" stroke="black" stroke-width="2.5" stroke-miterlimit="10" stroke-linecap="round" stroke-linejoin="round"/>
<path d="M150.912 23.9729L145.168 21.9316" stroke="black" stroke-width="2.5" stroke-miterlimit="10" stroke-linecap="round" stroke-linejoin="round"/>
<path d="M147.949 26.6914L158.616 30.4822" stroke="black" stroke-width="2.5" stroke-miterlimit="10" stroke-linecap="round" stroke-linejoin="round"/>
<path d="M150.375 20.0137L161.042 23.8044" stroke="black" stroke-width="2.5" stroke-miterlimit="10" stroke-linecap="round" stroke-linejoin="round"/>
<path d="M174.719 36.2031L216 51" stroke="black" stroke-width="2.5" stroke-miterlimit="10" stroke-linecap="round" stroke-linejoin="round"/>
<path d="M177.148 29.5254L235 50" stroke="black" stroke-width="2.5" stroke-miterlimit="10" stroke-linecap="round" stroke-linejoin="round"/>
<path d="M159.809 27.1348C158.486 30.7706 157.74 33.8348 158.143 33.978L172.812 39.1908C173.215 39.334 174.615 36.5025 175.938 32.8666" stroke="black" stroke-width="2.5" stroke-miterlimit="10" stroke-linecap="round" stroke-linejoin="round"/>
<path d="M159.808 27.1364C161.131 23.5005 162.53 20.6691 162.933 20.8123L177.602 26.0251C178.005 26.1683 177.26 29.2324 175.937 32.8683" stroke="black" stroke-width="2.5" stroke-miterlimit="10" stroke-linecap="round" stroke-linejoin="round"/>
</svg>
